<svg width="414" height="8033" viewBox="0 0 414 8033" fill="none" xmlns="http://www.w3.org/2000/svg">
<g clip-path="url(#clip0)">
<rect width="414" height="8033" fill="url(#paint0_linear)"/>
<path d="M-66.1171 354.739L-1.20122 347.945C8.4016 346.94 14.4776 357.989 8.48546 365.56C7.53995 366.755 6.35069 367.74 5.00195 368.449C-4.34417 373.358 -2.39788 387.314 7.95215 389.395L77.9038 403.464C89.0319 405.702 89.7325 421.346 78.8491 424.57C67.8145 427.839 68.7418 443.764 80.0811 445.73L98.9737 449.005C101.886 449.51 104.714 450.763 106.441 453.161C116.975 467.786 105.624 490.394 98.2709 491.164C94.2554 491.584 83.8066 493.238 69.7679 494.978C47.7824 497.704 56.4179 530.817 38.4675 543.801C32.0784 548.422 15.8127 549.597 -44.3117 540.869C-104.436 532.141 -100.962 524.926 -96.0324 521.511C-91.103 518.097 -8.49761 456.222 -12.4742 456.111C-14.4438 456.056 -41.4442 448.844 -69.7589 441.134C-95.4234 434.146 -109.091 406.231 -98.9837 381.628L-97.6285 378.329C-92.2629 365.269 -80.1602 356.208 -66.1171 354.739Z" fill="url(#paint1_linear)"/>
<path d="M334.647 484.391L331.668 474.46C326.373 456.804 335.411 438.023 352.512 431.145C359.679 428.262 365.716 423.13 369.714 416.52L373.286 410.613C384.855 391.485 406.64 380.965 428.765 384.163C471.156 390.291 520.393 398.386 520.371 402.184C520.353 405.261 504.289 439.908 486.99 476.265C469.528 512.967 428.431 531.935 389.063 521.828L367.982 516.415C352.026 512.319 339.379 500.169 334.647 484.391Z" fill="url(#paint2_linear)"/>
<path d="M-22.0966 7.20738L1.83419 5.00643C5.04964 4.71069 8.28421 4.68459 11.504 4.92839L83.313 10.3656C94.956 11.2472 101.386 24.2944 94.9927 34.0649C88.3153 44.2693 95.6371 57.809 107.832 57.8079L149.977 57.8042C164.012 57.8029 168.855 76.4762 156.588 83.2963C147.874 88.1414 147.161 100.405 155.255 106.228L164.178 112.647C176.378 121.424 175.207 139.935 161.999 147.105C151.95 152.561 148.354 165.215 154.032 175.14L155.929 178.456C162.469 189.888 158.63 204.452 147.304 211.174L138.954 216.13C132.213 220.131 124.296 221.678 116.544 220.51L105.083 218.783C97.8163 217.688 90.4182 217.806 83.1897 219.131L40.2869 226.996C19.3572 230.833 -0.815568 217.285 -5.18332 196.46L-6.02865 192.43C-8.72786 179.56 -3.52024 166.317 7.22218 158.733L19.4744 150.083C27.6657 144.3 29.5816 132.953 23.7432 124.801C19.5507 118.948 12.283 116.142 5.2446 117.66L-25.6823 124.329C-41.2838 127.694 -57.5281 122.934 -68.8466 111.681C-79.8569 100.735 -84.7702 85.0692 -81.983 69.796L-80.275 60.4367C-75.0218 31.6499 -51.2358 9.88736 -22.0966 7.20738Z" fill="url(#paint3_linear)"/>
<path d="M232.295 182.023L200.573 182.023C180.086 182.023 163.941 164.572 165.531 144.147C167.128 123.623 185.944 108.86 206.259 112.19L220.354 114.501C226.396 115.491 232.572 115.323 238.551 114.005L264.313 108.328C278.473 105.207 293.279 107.109 306.191 113.708L324.386 123.006C332.863 127.338 343.002 126.852 351.026 121.729L366.01 112.161C379.74 103.394 397.377 114.987 394.776 131.068C394.052 135.539 394.963 140.122 397.34 143.977L408.486 162.054C415.252 173.027 426.927 180.029 439.794 180.829L446.63 181.254C454.442 181.739 461.599 185.778 466.054 192.213C475.736 206.201 469.3 225.568 453.171 230.979L431.795 238.15C413.728 244.211 407.73 266.762 420.399 280.998C425.574 286.814 427.938 294.607 426.866 302.318L425.399 312.866C421.869 338.26 399.576 356.784 373.965 355.605L338.072 353.953L297.557 349.428C271.81 346.553 258.689 317.015 273.816 295.982L275.673 293.399C277.207 291.266 278.278 288.836 278.817 286.264C281.939 271.367 267.017 259.111 253.01 265.068L225.029 276.968C211.172 282.862 195.204 275.954 190.011 261.819C184.016 245.502 195.201 227.957 212.523 226.503L234.082 224.694C253.157 223.094 260.672 199.152 245.932 186.939C242.098 183.761 237.275 182.023 232.295 182.023Z" fill="url(#paint4_linear)"/>
<path d="M-46.1171 858.585L18.7988 851.792C28.4016 850.787 34.4776 861.836 28.4855 869.407C27.54 870.601 26.3507 871.587 25.002 872.295C15.6558 877.205 17.6021 891.16 27.9521 893.242L97.9038 907.311C109.032 909.549 109.733 925.193 98.8491 928.417C87.8145 931.685 88.7418 947.61 100.081 949.576L118.974 952.852C121.886 953.357 124.714 954.61 126.441 957.008C136.975 971.632 125.624 994.241 118.271 995.01C114.255 995.43 103.807 997.084 89.7679 998.825C67.7824 1001.55 76.4179 1034.66 58.4675 1047.65C52.0784 1052.27 35.8127 1053.44 -24.3117 1044.72C-84.436 1035.99 -80.9617 1028.77 -76.0324 1025.36C-71.103 1021.94 11.5024 960.069 7.52577 959.958C5.55623 959.903 -21.4442 952.691 -49.7589 944.981C-75.4234 937.993 -89.0915 910.078 -78.9837 885.475L-77.6285 882.176C-72.2629 869.115 -60.1602 860.055 -46.1171 858.585Z" fill="url(#paint5_linear)"/>
<path d="M253.647 826.391L250.668 816.46C245.373 798.804 254.411 780.023 271.512 773.145C278.679 770.262 284.716 765.13 288.714 758.52L292.286 752.614C303.855 733.485 325.64 722.965 347.765 726.164C390.156 732.292 439.393 740.387 439.371 744.184C439.353 747.261 423.289 781.908 405.99 818.265C388.528 854.967 347.431 873.935 308.063 863.828L286.982 858.415C271.026 854.319 258.379 842.169 253.647 826.391Z" fill="url(#paint6_linear)"/>
<path d="M-9.11705 1161.74L55.7988 1154.94C65.4016 1153.94 71.4776 1164.99 65.4855 1172.56C64.54 1173.75 63.3507 1174.74 62.002 1175.45C52.6558 1180.36 54.6021 1194.31 64.9521 1196.4L134.904 1210.46C146.032 1212.7 146.733 1228.35 135.849 1231.57C124.815 1234.84 125.742 1250.76 137.081 1252.73L155.974 1256.01C158.886 1256.51 161.714 1257.76 163.441 1260.16C173.975 1274.79 162.624 1297.39 155.271 1298.16C151.255 1298.58 140.807 1300.24 126.768 1301.98C104.782 1304.7 113.418 1337.82 95.4675 1350.8C89.0784 1355.42 72.8127 1356.6 12.6883 1347.87C-47.436 1339.14 -43.9617 1331.93 -39.0324 1328.51C-34.103 1325.1 48.5024 1263.22 44.5258 1263.11C42.5562 1263.06 15.5558 1255.84 -12.7589 1248.13C-38.4234 1241.15 -52.0915 1213.23 -41.9837 1188.63L-40.6285 1185.33C-35.2629 1172.27 -23.1602 1163.21 -9.11705 1161.74Z" fill="url(#paint7_linear)"/>
<path d="M256.903 972.054L280.834 969.853C284.05 969.557 287.284 969.531 290.504 969.775L362.313 975.212C373.956 976.094 380.386 989.141 373.993 998.911C367.315 1009.12 374.637 1022.66 386.832 1022.65L428.977 1022.65C443.012 1022.65 447.855 1041.32 435.588 1048.14C426.874 1052.99 426.161 1065.25 434.255 1071.07L443.178 1077.49C455.378 1086.27 454.207 1104.78 440.999 1111.95C430.95 1117.41 427.354 1130.06 433.032 1139.99L434.929 1143.3C441.469 1154.73 437.63 1169.3 426.304 1176.02L417.954 1180.98C411.213 1184.98 403.296 1186.52 395.544 1185.36L384.083 1183.63C376.816 1182.53 369.418 1182.65 362.19 1183.98L319.287 1191.84C298.357 1195.68 278.184 1182.13 273.817 1161.31L272.971 1157.28C270.272 1144.41 275.48 1131.16 286.222 1123.58L298.474 1114.93C306.666 1109.15 308.582 1097.8 302.743 1089.65C298.551 1083.79 291.283 1080.99 284.245 1082.51L253.318 1089.18C237.716 1092.54 221.472 1087.78 210.153 1076.53C199.143 1065.58 194.23 1049.92 197.017 1034.64L198.725 1025.28C203.978 996.496 227.764 974.734 256.903 972.054Z" fill="url(#paint8_linear)"/>
<path d="M-22.2674 745.054L1.66342 742.853C4.87887 742.557 8.11344 742.531 11.3332 742.775L83.1422 748.212C94.7852 749.094 101.215 762.141 94.8219 771.911C88.1445 782.116 95.4663 795.656 107.661 795.654L149.806 795.651C163.841 795.649 168.684 814.323 156.418 821.143C147.703 825.988 146.99 838.251 155.084 844.074L164.007 850.494C176.207 859.271 175.036 877.782 161.828 884.952C151.779 890.407 148.183 903.061 153.861 912.986L155.758 916.303C162.298 927.734 158.459 942.298 147.134 949.02L138.783 953.976C132.042 957.977 124.125 959.525 116.373 958.357L104.912 956.63C97.6455 955.535 90.2474 955.652 83.0189 956.977L40.1161 964.842C19.1865 968.679 -0.986344 955.132 -5.3541 934.307L-6.19942 930.276C-8.89864 917.406 -3.69102 904.163 7.0514 896.579L19.3036 887.929C27.4949 882.147 29.4108 870.8 23.5724 862.648C19.3799 856.794 12.1122 853.988 5.07382 855.506L-25.8531 862.176C-41.4546 865.54 -57.6988 860.78 -69.0174 849.528C-80.0276 838.582 -84.941 822.916 -82.1538 807.642L-80.4458 798.283C-75.1925 769.496 -51.4066 747.734 -22.2674 745.054Z" fill="url(#paint9_linear)"/>
<path d="M183.155 492.968L150.303 493.012C129.728 493.039 113.513 475.492 115.163 454.982C116.809 434.517 135.546 419.797 155.819 423.041L170.978 425.466C177.068 426.441 183.287 426.267 189.313 424.952L215.657 419.204C230.016 416.072 245.016 417.959 258.152 424.553L276.735 433.88C285.286 438.172 295.459 437.682 303.557 432.587L319.45 422.587C333.243 413.908 350.818 425.591 348.154 441.668C347.401 446.212 348.334 450.875 350.777 454.78L361.883 472.529C368.837 483.643 380.737 490.708 393.824 491.491L401.067 491.925C408.817 492.389 415.933 496.36 420.397 502.713C430.218 516.69 423.776 536.183 407.56 541.556L385.226 548.957C367.141 554.949 361.179 577.55 373.955 591.682C379.208 597.494 381.607 605.339 380.501 613.094L378.964 623.871C375.361 649.135 353.177 667.542 327.682 666.421L290.205 664.773L248.557 660.251C222.775 657.452 209.689 627.795 224.999 606.863L226.869 604.306C228.435 602.166 229.532 599.719 230.087 597.126C233.277 582.233 218.404 569.901 204.359 575.794L174.895 588.159C161.058 593.966 145.169 587.087 139.936 573.023C133.84 556.643 145.056 538.968 162.471 537.507L184.97 535.619C204.12 534.013 211.577 509.912 196.681 497.771C192.861 494.658 188.083 492.961 183.155 492.968Z" fill="url(#paint10_linear)"/>
<path d="M506.088 1622.59L441.172 1615.79C431.569 1614.79 425.493 1625.84 431.485 1633.41C432.431 1634.6 433.62 1635.59 434.969 1636.3C444.315 1641.2 442.368 1655.16 432.018 1657.24L362.067 1671.31C350.939 1673.55 350.238 1689.19 361.121 1692.42C372.156 1695.69 371.229 1711.61 359.889 1713.58L340.997 1716.85C338.085 1717.36 335.257 1718.61 333.529 1721.01C322.995 1735.63 334.347 1758.24 341.7 1759.01C345.715 1759.43 356.164 1761.08 370.203 1762.82C392.188 1765.55 383.553 1798.66 401.503 1811.65C407.892 1816.27 424.158 1817.44 484.282 1808.72C544.406 1799.99 540.932 1792.77 536.003 1789.36C531.073 1785.94 448.468 1724.07 452.445 1723.96C454.414 1723.9 481.415 1716.69 509.729 1708.98C535.394 1701.99 549.062 1674.08 538.954 1649.47L537.599 1646.18C532.233 1633.12 520.131 1624.05 506.088 1622.59Z" fill="url(#paint11_linear)"/>
<path d="M105.324 1752.24L108.302 1742.31C113.598 1724.65 104.56 1705.87 87.4581 1698.99C80.2911 1696.11 74.2544 1690.98 70.2566 1684.37L66.6844 1678.46C55.1153 1659.33 33.33 1648.81 11.2052 1652.01C-31.1854 1658.14 -80.423 1666.23 -80.4005 1670.03C-80.3822 1673.11 -64.3184 1707.75 -47.0198 1744.11C-29.5571 1780.81 11.5399 1799.78 50.9078 1789.67L71.9888 1784.26C87.9443 1780.17 100.591 1768.02 105.324 1752.24Z" fill="url(#paint12_linear)"/>
<path d="M462.067 1275.05L438.136 1272.85C434.921 1272.56 431.686 1272.53 428.466 1272.77L356.657 1278.21C345.014 1279.09 338.584 1292.14 344.978 1301.91C351.655 1312.12 344.333 1325.66 332.138 1325.65L289.994 1325.65C275.959 1325.65 271.116 1344.32 283.382 1351.14C292.096 1355.99 292.809 1368.25 284.716 1374.07L275.793 1380.49C263.593 1389.27 264.763 1407.78 277.971 1414.95C288.021 1420.41 291.617 1433.06 285.939 1442.99L284.041 1446.3C277.501 1457.73 281.341 1472.3 292.666 1479.02L301.017 1483.98C307.758 1487.98 315.675 1489.52 323.426 1488.36L334.887 1486.63C342.154 1485.53 349.552 1485.65 356.781 1486.98L399.684 1494.84C420.613 1498.68 440.786 1485.13 445.154 1464.31L445.999 1460.28C448.698 1447.41 443.491 1434.16 432.748 1426.58L420.496 1417.93C412.305 1412.15 410.389 1400.8 416.227 1392.65C420.42 1386.79 427.687 1383.99 434.726 1385.51L465.653 1392.18C481.254 1395.54 497.499 1390.78 508.817 1379.53C519.827 1368.58 524.741 1352.92 521.953 1337.64L520.246 1328.28C514.992 1299.5 491.206 1277.73 462.067 1275.05Z" fill="url(#paint13_linear)"/>
<path d="M207.675 1449.87L239.398 1449.87C259.884 1449.87 276.029 1432.42 274.44 1411.99C272.842 1391.47 254.027 1376.71 233.712 1380.04L219.617 1382.35C213.574 1383.34 207.399 1383.17 201.419 1381.85L175.658 1376.17C161.497 1373.05 146.691 1374.96 133.779 1381.55L115.584 1390.85C107.107 1395.18 96.9686 1394.7 88.9447 1389.58L73.9609 1380.01C60.2309 1371.24 42.5933 1382.83 45.1947 1398.91C45.918 1403.39 45.0078 1407.97 42.6305 1411.82L31.4847 1429.9C24.7189 1440.87 13.0433 1447.88 0.176959 1448.68L-6.65995 1449.1C-14.4711 1449.59 -21.6289 1453.62 -26.0831 1460.06C-35.7656 1474.05 -29.3298 1493.41 -13.2007 1498.83L8.17515 1506C26.2427 1512.06 32.2407 1534.61 19.5718 1548.84C14.3965 1554.66 12.0324 1562.45 13.1045 1570.16L14.571 1580.71C18.1016 1606.11 40.3945 1624.63 66.0054 1623.45L101.899 1621.8L142.413 1617.27C168.16 1614.4 181.282 1584.86 166.155 1563.83L164.297 1561.25C162.763 1559.11 161.692 1556.68 161.153 1554.11C158.032 1539.21 172.954 1526.96 186.96 1532.91L214.941 1544.82C228.799 1550.71 244.767 1543.8 249.96 1529.67C255.954 1513.35 244.77 1495.8 227.447 1494.35L205.888 1492.54C186.813 1490.94 179.299 1467 194.038 1454.79C197.872 1451.61 202.695 1449.87 207.675 1449.87Z" fill="url(#paint14_linear)"/>
<path d="M-42.1171 2145.59L22.7988 2138.79C32.4016 2137.79 38.4776 2148.84 32.4855 2156.41C31.54 2157.6 30.3507 2158.59 29.002 2159.3C19.6558 2164.2 21.6021 2178.16 31.9521 2180.24L101.904 2194.31C113.032 2196.55 113.733 2212.19 102.849 2215.42C91.8145 2218.69 92.7418 2234.61 104.081 2236.58L122.974 2239.85C125.886 2240.36 128.714 2241.61 130.441 2244.01C140.975 2258.63 129.624 2281.24 122.271 2282.01C118.255 2282.43 107.807 2284.08 93.7679 2285.82C71.7824 2288.55 80.4179 2321.66 62.4675 2334.65C56.0784 2339.27 39.8127 2340.44 -20.3117 2331.72C-80.436 2322.99 -76.9617 2315.77 -72.0324 2312.36C-67.103 2308.94 15.5024 2247.07 11.5258 2246.96C9.55623 2246.9 -17.4442 2239.69 -45.7589 2231.98C-71.4234 2224.99 -85.0915 2197.08 -74.9837 2172.47L-73.6285 2169.18C-68.2629 2156.12 -56.1602 2147.05 -42.1171 2145.59Z" fill="url(#paint15_linear)"/>
<path d="M358.647 2275.24L355.668 2265.31C350.373 2247.65 359.411 2228.87 376.512 2221.99C383.679 2219.11 389.716 2213.98 393.714 2207.37L397.286 2201.46C408.855 2182.33 430.64 2171.81 452.765 2175.01C495.156 2181.14 544.393 2189.23 544.371 2193.03C544.353 2196.11 528.289 2230.75 510.99 2267.11C493.528 2303.81 452.431 2322.78 413.063 2312.67L391.982 2307.26C376.026 2303.17 363.379 2291.02 358.647 2275.24Z" fill="url(#paint16_linear)"/>
<path d="M1.90342 1798.05L25.8342 1795.85C29.0496 1795.56 32.2842 1795.53 35.504 1795.77L107.313 1801.21C118.956 1802.09 125.386 1815.14 118.993 1824.91C112.315 1835.12 119.637 1848.66 131.832 1848.65L173.977 1848.65C188.012 1848.65 192.855 1867.32 180.588 1874.14C171.874 1878.99 171.161 1891.25 179.255 1897.07L188.178 1903.49C200.378 1912.27 199.207 1930.78 185.999 1937.95C175.95 1943.41 172.354 1956.06 178.032 1965.99L179.929 1969.3C186.469 1980.73 182.63 1995.3 171.304 2002.02L162.954 2006.98C156.213 2010.98 148.296 2012.52 140.544 2011.36L129.083 2009.63C121.816 2008.53 114.418 2008.65 107.19 2009.98L64.2869 2017.84C43.3572 2021.68 23.1844 2008.13 18.8167 1987.31L17.9714 1983.28C15.2721 1970.41 20.4798 1957.16 31.2222 1949.58L43.4744 1940.93C51.6657 1935.15 53.5816 1923.8 47.7432 1915.65C43.5507 1909.79 36.283 1906.99 29.2446 1908.51L-1.68232 1915.18C-17.2838 1918.54 -33.5281 1913.78 -44.8466 1902.53C-55.8569 1891.58 -60.7702 1875.92 -57.983 1860.64L-56.275 1851.28C-51.0218 1822.5 -27.2358 1800.73 1.90342 1798.05Z" fill="url(#paint17_linear)"/>
<path d="M256.295 1972.87L224.573 1972.87C204.086 1972.87 187.941 1955.42 189.531 1934.99C191.128 1914.47 209.944 1899.71 230.259 1903.04L244.354 1905.35C250.396 1906.34 256.572 1906.17 262.551 1904.85L288.313 1899.17C302.473 1896.05 317.279 1897.96 330.191 1904.55L348.386 1913.85C356.863 1918.18 367.002 1917.7 375.026 1912.58L390.01 1903.01C403.74 1894.24 421.377 1905.83 418.776 1921.91C418.052 1926.39 418.963 1930.97 421.34 1934.82L432.486 1952.9C439.252 1963.87 450.927 1970.88 463.794 1971.68L470.63 1972.1C478.442 1972.59 485.599 1976.62 490.054 1983.06C499.736 1997.05 493.3 2016.41 477.171 2021.83L455.795 2029C437.728 2035.06 431.73 2057.61 444.399 2071.84C449.574 2077.66 451.938 2085.45 450.866 2093.16L449.399 2103.71C445.869 2129.11 423.576 2147.63 397.965 2146.45L362.072 2144.8L321.557 2140.27C295.81 2137.4 282.689 2107.86 297.816 2086.83L299.673 2084.25C301.207 2082.11 302.278 2079.68 302.817 2077.11C305.939 2062.21 291.017 2049.96 277.01 2055.91L249.029 2067.81C235.172 2073.71 219.204 2066.8 214.011 2052.67C208.016 2036.35 219.201 2018.8 236.523 2017.35L258.082 2015.54C277.157 2013.94 284.672 1990 269.932 1977.79C266.098 1974.61 261.275 1972.87 256.295 1972.87Z" fill="url(#paint18_linear)"/>
<path d="M-88.1171 2478.34L-23.2012 2471.55C-13.5984 2470.54 -7.52237 2481.59 -13.5145 2489.16C-14.46 2490.36 -15.6493 2491.34 -16.998 2492.05C-26.3442 2496.96 -24.3979 2510.92 -14.0479 2513L55.9038 2527.07C67.0319 2529.31 67.7325 2544.95 56.8491 2548.17C45.8145 2551.44 46.7418 2567.37 58.0811 2569.33L76.9737 2572.61C79.8857 2573.11 82.7139 2574.37 84.4413 2576.77C94.9755 2591.39 83.6236 2614 76.2709 2614.77C72.2554 2615.19 61.8066 2616.84 47.7679 2618.58C25.7824 2621.31 34.4179 2654.42 16.4675 2667.4C10.0784 2672.03 -6.18733 2673.2 -66.3117 2664.47C-126.436 2655.75 -122.962 2648.53 -118.032 2645.12C-113.103 2641.7 -30.4976 2579.83 -34.4742 2579.72C-36.4438 2579.66 -63.4442 2572.45 -91.7589 2564.74C-117.423 2557.75 -131.091 2529.84 -120.984 2505.23L-119.629 2501.93C-114.263 2488.87 -102.16 2479.81 -88.1171 2478.34Z" fill="url(#paint19_linear)"/>
<path d="M312.647 2607.99L309.668 2598.06C304.373 2580.41 313.411 2561.63 330.512 2554.75C337.679 2551.87 343.716 2546.73 347.714 2540.12L351.286 2534.22C362.855 2515.09 384.64 2504.57 406.765 2507.77C449.156 2513.9 498.393 2521.99 498.371 2525.79C498.353 2528.87 482.289 2563.51 464.99 2599.87C447.528 2636.57 406.431 2655.54 367.063 2645.43L345.982 2640.02C330.026 2635.92 317.379 2623.77 312.647 2607.99Z" fill="url(#paint20_linear)"/>
<path d="M222.005 2290.63L190.282 2290.63C169.796 2290.63 153.651 2273.18 155.24 2252.75C156.838 2232.23 175.653 2217.46 195.968 2220.79L210.063 2223.1C216.106 2224.1 222.281 2223.93 228.26 2222.61L254.022 2216.93C268.183 2213.81 282.989 2215.71 295.901 2222.31L314.096 2231.61C322.573 2235.94 332.711 2235.46 340.735 2230.33L355.719 2220.77C369.449 2212 387.087 2223.59 384.485 2239.67C383.762 2244.14 384.672 2248.73 387.049 2252.58L398.195 2270.66C404.961 2281.63 416.637 2288.63 429.503 2289.43L436.34 2289.86C444.151 2290.34 451.309 2294.38 455.763 2300.82C465.446 2314.81 459.01 2334.17 442.881 2339.58L421.505 2346.75C403.437 2352.82 397.439 2375.37 410.108 2389.6C415.283 2395.42 417.648 2403.21 416.575 2410.92L415.109 2421.47C411.578 2446.86 389.285 2465.39 363.675 2464.21L327.781 2462.56L287.267 2458.03C261.519 2455.16 248.398 2425.62 263.525 2404.59L265.383 2402C266.917 2399.87 267.988 2397.44 268.527 2394.87C271.648 2379.97 256.726 2367.72 242.719 2373.67L214.738 2385.57C200.881 2391.47 184.913 2384.56 179.72 2370.42C173.726 2354.11 184.91 2336.56 202.233 2335.11L223.792 2333.3C242.867 2331.7 250.381 2307.76 235.642 2295.54C231.808 2292.37 226.984 2290.63 222.005 2290.63Z" fill="url(#paint21_linear)"/>
<path d="M-68.1171 2982.19L-3.20122 2975.4C6.4016 2974.39 12.4776 2985.44 6.48546 2993.01C5.53995 2994.21 4.35069 2995.19 3.00195 2995.9C-6.34417 3000.81 -4.39788 3014.76 5.95215 3016.85L75.9038 3030.92C87.0319 3033.15 87.7325 3048.8 76.8491 3052.02C65.8145 3055.29 66.7418 3071.21 78.0811 3073.18L96.9737 3076.46C99.8857 3076.96 102.714 3078.21 104.441 3080.61C114.975 3095.24 103.624 3117.85 96.2709 3118.61C92.2554 3119.03 81.8066 3120.69 67.7679 3122.43C45.7824 3125.16 54.4179 3158.27 36.4675 3171.25C30.0784 3175.87 13.8127 3177.05 -46.3117 3168.32C-106.436 3159.59 -102.962 3152.38 -98.0324 3148.96C-93.103 3145.55 -10.4976 3083.67 -14.4742 3083.56C-16.4438 3083.51 -43.4442 3076.3 -71.7589 3068.59C-97.4234 3061.6 -111.091 3033.68 -100.984 3009.08L-99.6285 3005.78C-94.2629 2992.72 -82.1602 2983.66 -68.1171 2982.19Z" fill="url(#paint22_linear)"/>
<path d="M231.647 2950L228.668 2940.06C223.373 2922.41 232.411 2903.63 249.512 2896.75C256.679 2893.87 262.716 2888.73 266.714 2882.12L270.286 2876.22C281.855 2857.09 303.64 2846.57 325.765 2849.77C368.156 2855.9 417.393 2863.99 417.371 2867.79C417.353 2870.87 401.289 2905.51 383.99 2941.87C366.528 2978.57 325.431 2997.54 286.063 2987.43L264.982 2982.02C249.026 2977.92 236.379 2965.77 231.647 2950Z" fill="url(#paint23_linear)"/>
<path d="M-31.1171 3285.34L33.7988 3278.55C43.4016 3277.54 49.4776 3288.59 43.4855 3296.16C42.54 3297.36 41.3507 3298.34 40.002 3299.05C30.6558 3303.96 32.6021 3317.92 42.9521 3320L112.904 3334.07C124.032 3336.31 124.733 3351.95 113.849 3355.17C102.815 3358.44 103.742 3374.37 115.081 3376.33L133.974 3379.61C136.886 3380.11 139.714 3381.37 141.441 3383.77C151.975 3398.39 140.624 3421 133.271 3421.77C129.255 3422.19 118.807 3423.84 104.768 3425.58C82.7824 3428.31 91.4179 3461.42 73.4675 3474.4C67.0784 3479.03 50.8127 3480.2 -9.31167 3471.47C-69.436 3462.75 -65.9617 3455.53 -61.0324 3452.12C-56.103 3448.7 26.5024 3386.83 22.5258 3386.72C20.5562 3386.66 -6.44425 3379.45 -34.7589 3371.74C-60.4234 3364.75 -74.0915 3336.84 -63.9837 3312.23L-62.6285 3308.93C-57.2629 3295.87 -45.1602 3286.81 -31.1171 3285.34Z" fill="url(#paint24_linear)"/>
<path d="M234.903 3095.66L258.834 3093.46C262.05 3093.16 265.284 3093.14 268.504 3093.38L340.313 3098.82C351.956 3099.7 358.386 3112.75 351.993 3122.52C345.315 3132.72 352.637 3146.26 364.832 3146.26L406.977 3146.26C421.012 3146.25 425.855 3164.93 413.588 3171.75C404.874 3176.59 404.161 3188.86 412.255 3194.68L421.178 3201.1C433.378 3209.87 432.207 3228.39 418.999 3235.56C408.95 3241.01 405.354 3253.67 411.032 3263.59L412.929 3266.91C419.469 3278.34 415.63 3292.9 404.304 3299.62L395.954 3304.58C389.213 3308.58 381.296 3310.13 373.544 3308.96L362.083 3307.23C354.816 3306.14 347.418 3306.26 340.19 3307.58L297.287 3315.45C276.357 3319.28 256.184 3305.74 251.817 3284.91L250.971 3280.88C248.272 3268.01 253.48 3254.77 264.222 3247.18L276.474 3238.53C284.666 3232.75 286.582 3221.4 280.743 3213.25C276.551 3207.4 269.283 3204.59 262.245 3206.11L231.318 3212.78C215.716 3216.14 199.472 3211.38 188.153 3200.13C177.143 3189.19 172.23 3173.52 175.017 3158.25L176.725 3148.89C181.978 3120.1 205.764 3098.34 234.903 3095.66Z" fill="url(#paint25_linear)"/>
<path d="M-44.2674 2868.66L-20.3366 2866.46C-17.1211 2866.16 -13.8866 2866.14 -10.6668 2866.38L61.1422 2871.82C72.7852 2872.7 79.2153 2885.75 72.8219 2895.52C66.1445 2905.72 73.4663 2919.26 85.6614 2919.26L127.806 2919.26C141.841 2919.25 146.684 2937.93 134.418 2944.75C125.703 2949.59 124.99 2961.86 133.084 2967.68L142.007 2974.1C154.207 2982.87 153.036 3001.39 139.828 3008.56C129.779 3014.01 126.183 3026.67 131.861 3036.59L133.758 3039.91C140.298 3051.34 136.459 3065.9 125.134 3072.62L116.783 3077.58C110.042 3081.58 102.125 3083.13 94.3734 3081.96L82.9124 3080.23C75.6455 3079.14 68.2474 3079.26 61.0189 3080.58L18.1161 3088.45C-2.81354 3092.28 -22.9863 3078.74 -27.3541 3057.91L-28.1994 3053.88C-30.8986 3041.01 -25.691 3027.77 -14.9486 3020.18L-2.69636 3011.53C5.4949 3005.75 7.4108 2994.4 1.5724 2986.25C-2.62006 2980.4 -9.88781 2977.59 -16.9262 2979.11L-47.8531 2985.78C-63.4546 2989.14 -79.6988 2984.38 -91.0174 2973.13C-102.028 2962.19 -106.941 2946.52 -104.154 2931.25L-102.446 2921.89C-97.1925 2893.1 -73.4066 2871.34 -44.2674 2868.66Z" fill="url(#paint26_linear)"/>
<path d="M58.3479 2657.97L25.4962 2658.01C4.92033 2658.04 -11.2941 2640.49 -9.64429 2619.98C-7.99803 2599.52 10.739 2584.8 31.0121 2588.04L46.1704 2590.47C52.2607 2591.44 58.4796 2591.27 64.5057 2589.95L90.8496 2584.2C105.209 2581.07 120.209 2582.96 133.344 2589.55L151.928 2598.88C160.479 2603.17 170.651 2602.68 178.749 2597.59L194.643 2587.59C208.436 2578.91 226.01 2590.59 223.347 2606.67C222.594 2611.21 223.526 2615.87 225.969 2619.78L237.075 2637.53C244.029 2648.64 255.929 2655.71 269.017 2656.49L276.26 2656.92C284.01 2657.39 291.126 2661.36 295.59 2667.71C305.411 2681.69 298.969 2701.18 282.753 2706.56L260.418 2713.96C242.334 2719.95 236.372 2742.55 249.148 2756.68C254.401 2762.49 256.799 2770.34 255.693 2778.09L254.156 2788.87C250.554 2814.13 228.369 2832.54 202.875 2831.42L165.398 2829.77L123.75 2825.25C97.9677 2822.45 84.8815 2792.79 100.192 2771.86L102.062 2769.31C103.628 2767.17 104.724 2764.72 105.28 2762.13C108.47 2747.23 93.5964 2734.9 79.5522 2740.79L50.0874 2753.16C36.2503 2758.97 20.362 2752.09 15.1285 2738.02C9.03322 2721.64 20.2485 2703.97 37.6642 2702.51L60.1626 2700.62C79.3125 2699.01 86.7695 2674.91 71.8734 2662.77C68.0538 2659.66 63.2754 2657.96 58.3479 2657.97Z" fill="url(#paint27_linear)"/>
<path d="M484.088 3746.19L419.172 3739.4C409.569 3738.39 403.493 3749.44 409.485 3757.01C410.431 3758.21 411.62 3759.19 412.969 3759.9C422.315 3764.81 420.368 3778.76 410.018 3780.85L340.067 3794.92C328.939 3797.15 328.238 3812.8 339.121 3816.02C350.156 3819.29 349.229 3835.21 337.889 3837.18L318.997 3840.46C316.085 3840.96 313.257 3842.21 311.529 3844.61C300.995 3859.24 312.347 3881.85 319.7 3882.61C323.715 3883.03 334.164 3884.69 348.203 3886.43C370.188 3889.16 361.553 3922.27 379.503 3935.25C385.892 3939.87 402.158 3941.05 462.282 3932.32C522.406 3923.59 518.932 3916.38 514.003 3912.96C509.073 3909.55 426.468 3847.67 430.445 3847.56C432.414 3847.51 459.415 3840.3 487.729 3832.59C513.394 3825.6 527.062 3797.68 516.954 3773.08L515.599 3769.78C510.233 3756.72 498.131 3747.66 484.088 3746.19Z" fill="url(#paint28_linear)"/>
<path d="M83.3237 3875.84L86.302 3865.91C91.5976 3848.26 82.5598 3829.47 65.4581 3822.6C58.2911 3819.71 52.2544 3814.58 48.2566 3807.97L44.6844 3802.06C33.1153 3782.94 11.33 3772.42 -10.7948 3775.61C-53.1854 3781.74 -102.423 3789.84 -102.4 3793.64C-102.382 3796.71 -86.3184 3831.36 -69.0198 3867.72C-51.5571 3904.42 -10.4601 3923.39 28.9078 3913.28L49.9888 3907.87C65.9443 3903.77 78.5912 3891.62 83.3237 3875.84Z" fill="url(#paint29_linear)"/>
<path d="M440.067 3398.66L416.136 3396.46C412.921 3396.16 409.686 3396.14 406.466 3396.38L334.657 3401.82C323.014 3402.7 316.584 3415.75 322.978 3425.52C329.655 3435.72 322.333 3449.26 310.138 3449.26L267.994 3449.26C253.959 3449.25 249.116 3467.93 261.382 3474.75C270.096 3479.59 270.809 3491.86 262.716 3497.68L253.793 3504.1C241.593 3512.87 242.763 3531.39 255.971 3538.56C266.021 3544.01 269.617 3556.67 263.939 3566.59L262.041 3569.91C255.501 3581.34 259.341 3595.9 270.666 3602.62L279.017 3607.58C285.758 3611.58 293.675 3613.13 301.426 3611.96L312.887 3610.23C320.154 3609.14 327.552 3609.26 334.781 3610.58L377.684 3618.45C398.613 3622.28 418.786 3608.74 423.154 3587.91L423.999 3583.88C426.698 3571.01 421.491 3557.77 410.748 3550.18L398.496 3541.53C390.305 3535.75 388.389 3524.4 394.227 3516.25C398.42 3510.4 405.687 3507.59 412.726 3509.11L443.653 3515.78C459.254 3519.14 475.499 3514.38 486.817 3503.13C497.827 3492.19 502.741 3476.52 499.953 3461.25L498.246 3451.89C492.992 3423.1 469.206 3401.34 440.067 3398.66Z" fill="url(#paint30_linear)"/>
<path d="M185.675 3573.47L217.398 3573.47C237.884 3573.47 254.029 3556.02 252.44 3535.6C250.842 3515.07 232.027 3500.31 211.712 3503.64L197.617 3505.95C191.574 3506.94 185.399 3506.77 179.419 3505.46L153.658 3499.78C139.497 3496.66 124.691 3498.56 111.779 3505.16L93.5843 3514.46C85.107 3518.79 74.9686 3518.3 66.9447 3513.18L51.9609 3503.61C38.2309 3494.85 20.5933 3506.44 23.1947 3522.52C23.918 3526.99 23.0078 3531.57 20.6305 3535.43L9.48469 3553.51C2.71887 3564.48 -8.95666 3571.48 -21.823 3572.28L-28.66 3572.7C-36.4711 3573.19 -43.6289 3577.23 -48.0831 3583.66C-57.7656 3597.65 -51.3298 3617.02 -35.2007 3622.43L-13.8249 3629.6C4.24268 3635.66 10.2407 3658.21 -2.42818 3672.45C-7.60354 3678.26 -9.96757 3686.06 -8.89553 3693.77L-7.42895 3704.32C-3.89841 3729.71 18.3945 3748.23 44.0054 3747.06L79.8985 3745.4L120.413 3740.88C146.16 3738 159.282 3708.47 144.155 3687.43L142.297 3684.85C140.763 3682.72 139.692 3680.29 139.153 3677.72C136.032 3662.82 150.954 3650.56 164.96 3656.52L192.941 3668.42C206.799 3674.31 222.767 3667.4 227.96 3653.27C233.954 3636.95 222.77 3619.41 205.447 3617.95L183.888 3616.15C164.813 3614.54 157.299 3590.6 172.038 3578.39C175.872 3575.21 180.695 3573.47 185.675 3573.47Z" fill="url(#paint31_linear)"/>
<path d="M-64.1171 4269.19L0.798779 4262.4C10.4016 4261.39 16.4776 4272.44 10.4855 4280.01C9.53995 4281.21 8.35069 4282.19 7.00195 4282.9C-2.34417 4287.81 -0.397881 4301.76 9.95215 4303.85L79.9038 4317.92C91.0319 4320.15 91.7325 4335.8 80.8491 4339.02C69.8145 4342.29 70.7418 4358.21 82.0811 4360.18L100.974 4363.46C103.886 4363.96 106.714 4365.21 108.441 4367.61C118.975 4382.24 107.624 4404.84 100.271 4405.61C96.2554 4406.03 85.8066 4407.69 71.7679 4409.43C49.7824 4412.16 58.4179 4445.27 40.4675 4458.25C34.0784 4462.87 17.8127 4464.05 -42.3117 4455.32C-102.436 4446.59 -98.9617 4439.38 -94.0324 4435.96C-89.103 4432.55 -6.49761 4370.67 -10.4742 4370.56C-12.4438 4370.51 -39.4442 4363.29 -67.7589 4355.59C-93.4234 4348.6 -107.091 4320.68 -96.9837 4296.08L-95.6285 4292.78C-90.2629 4279.72 -78.1602 4270.66 -64.1171 4269.19Z" fill="url(#paint32_linear)"/>
<path d="M336.647 4398.84L333.668 4388.91C328.373 4371.26 337.411 4352.47 354.512 4345.6C361.679 4342.71 367.716 4337.58 371.714 4330.97L375.286 4325.06C386.855 4305.94 408.64 4295.42 430.765 4298.61C473.156 4304.74 522.393 4312.84 522.371 4316.64C522.353 4319.71 506.289 4354.36 488.99 4390.72C471.528 4427.42 430.431 4446.39 391.063 4436.28L369.982 4430.87C354.026 4426.77 341.379 4414.62 336.647 4398.84Z" fill="url(#paint33_linear)"/>
<path d="M-20.0966 3921.66L3.83419 3919.46C7.04964 3919.16 10.2842 3919.14 13.504 3919.38L85.313 3924.82C96.956 3925.7 103.386 3938.75 96.9927 3948.52C90.3153 3958.72 97.6371 3972.26 109.832 3972.26L151.977 3972.26C166.012 3972.25 170.855 3990.93 158.588 3997.75C149.874 4002.59 149.161 4014.86 157.255 4020.68L166.178 4027.1C178.378 4035.87 177.207 4054.39 163.999 4061.56C153.95 4067.01 150.354 4079.67 156.032 4089.59L157.929 4092.91C164.469 4104.34 160.63 4118.9 149.304 4125.62L140.954 4130.58C134.213 4134.58 126.296 4136.13 118.544 4134.96L107.083 4133.23C99.8163 4132.14 92.4182 4132.26 85.1897 4133.58L42.2869 4141.45C21.3572 4145.28 1.18443 4131.74 -3.18332 4110.91L-4.02865 4106.88C-6.72786 4094.01 -1.52024 4080.77 9.22218 4073.18L21.4744 4064.53C29.6657 4058.75 31.5816 4047.4 25.7432 4039.25C21.5507 4033.4 14.283 4030.59 7.2446 4032.11L-23.6823 4038.78C-39.2838 4042.14 -55.5281 4037.38 -66.8466 4026.13C-77.8569 4015.19 -82.7702 3999.52 -79.983 3984.25L-78.275 3974.89C-73.0218 3946.1 -49.2358 3924.34 -20.0966 3921.66Z" fill="url(#paint34_linear)"/>
<path d="M234.295 4096.47L202.573 4096.47C182.086 4096.47 165.941 4079.02 167.531 4058.6C169.128 4038.07 187.944 4023.31 208.259 4026.64L222.354 4028.95C228.396 4029.94 234.572 4029.77 240.551 4028.46L266.313 4022.78C280.473 4019.66 295.279 4021.56 308.191 4028.16L326.386 4037.46C334.863 4041.79 345.002 4041.3 353.026 4036.18L368.01 4026.61C381.74 4017.85 399.377 4029.44 396.776 4045.52C396.052 4049.99 396.963 4054.57 399.34 4058.43L410.486 4076.5C417.252 4087.48 428.927 4094.48 441.794 4095.28L448.63 4095.7C456.442 4096.19 463.599 4100.23 468.054 4106.66C477.736 4120.65 471.3 4140.02 455.171 4145.43L433.795 4152.6C415.728 4158.66 409.73 4181.21 422.399 4195.45C427.574 4201.26 429.938 4209.06 428.866 4216.77L427.399 4227.32C423.869 4252.71 401.576 4271.23 375.965 4270.06L340.072 4268.4L299.557 4263.88C273.81 4261 260.689 4231.47 275.816 4210.43L277.673 4207.85C279.207 4205.72 280.278 4203.29 280.817 4200.71C283.939 4185.82 269.017 4173.56 255.01 4179.52L227.029 4191.42C213.172 4197.31 197.204 4190.4 192.011 4176.27C186.016 4159.95 197.201 4142.41 214.523 4140.95L236.082 4139.15C255.157 4137.54 262.672 4113.6 247.932 4101.39C244.098 4098.21 239.275 4096.47 234.295 4096.47Z" fill="url(#paint35_linear)"/>
<path d="M174.324 4801.24L177.302 4791.31C182.598 4773.65 173.56 4754.87 156.458 4747.99C149.291 4745.11 143.254 4739.98 139.257 4733.37L135.684 4727.46C124.115 4708.33 102.33 4697.81 80.2052 4701.01C37.8146 4707.14 -11.423 4715.23 -11.4005 4719.03C-11.3822 4722.11 4.68156 4756.75 21.9802 4793.11C39.4429 4829.81 80.5399 4848.78 119.908 4838.67L140.989 4833.26C156.944 4829.17 169.591 4817.02 174.324 4801.24Z" fill="url(#paint36_linear)"/>
<path d="M531.067 4324.05L507.136 4321.85C503.921 4321.56 500.686 4321.53 497.466 4321.78L425.657 4327.21C414.014 4328.09 407.584 4341.14 413.978 4350.91C420.655 4361.12 413.333 4374.66 401.138 4374.65L358.994 4374.65C344.959 4374.65 340.116 4393.32 352.382 4400.14C361.096 4404.99 361.809 4417.25 353.716 4423.07L344.793 4429.49C332.593 4438.27 333.763 4456.78 346.971 4463.95C357.021 4469.41 360.617 4482.06 354.939 4491.99L353.041 4495.3C346.501 4506.73 350.341 4521.3 361.666 4528.02L370.017 4532.98C376.758 4536.98 384.675 4538.52 392.426 4537.36L403.887 4535.63C411.154 4534.53 418.552 4534.65 425.781 4535.98L468.684 4543.84C489.613 4547.68 509.786 4534.13 514.154 4513.31L514.999 4509.28C517.698 4496.41 512.491 4483.16 501.748 4475.58L489.496 4466.93C481.305 4461.15 479.389 4449.8 485.227 4441.65C489.42 4435.79 496.687 4432.99 503.726 4434.51L534.653 4441.18C550.254 4444.54 566.499 4439.78 577.817 4428.53C588.827 4417.58 593.741 4401.92 590.953 4386.64L589.246 4377.28C583.992 4348.5 560.206 4326.73 531.067 4324.05Z" fill="url(#paint37_linear)"/>
<path d="M276.675 4498.87L308.398 4498.87C328.884 4498.87 345.029 4481.42 343.44 4460.99C341.842 4440.47 323.027 4425.71 302.712 4429.04L288.617 4431.35C282.574 4432.34 276.399 4432.17 270.419 4430.85L244.658 4425.17C230.497 4422.05 215.691 4423.96 202.779 4430.55L184.584 4439.85C176.107 4444.18 165.969 4443.7 157.945 4438.58L142.961 4429.01C129.231 4420.24 111.593 4431.83 114.195 4447.91C114.918 4452.39 114.008 4456.97 111.631 4460.82L100.485 4478.9C93.7189 4489.87 82.0433 4496.88 69.177 4497.68L62.34 4498.1C54.5289 4498.59 47.3711 4502.62 42.9169 4509.06C33.2344 4523.05 39.6702 4542.41 55.7993 4547.83L77.1751 4555C95.2427 4561.06 101.241 4583.61 88.5718 4597.84C83.3965 4603.66 81.0324 4611.45 82.1045 4619.16L83.571 4629.71C87.1016 4655.11 109.394 4673.63 135.005 4672.45L170.899 4670.8L211.413 4666.27C237.16 4663.4 250.282 4633.86 235.155 4612.83L233.297 4610.25C231.763 4608.11 230.692 4605.68 230.153 4603.11C227.032 4588.21 241.954 4575.96 255.96 4581.91L283.941 4593.82C297.799 4599.71 313.767 4592.8 318.96 4578.67C324.954 4562.35 313.77 4544.8 296.447 4543.35L274.888 4541.54C255.813 4539.94 248.299 4516 263.038 4503.79C266.872 4500.61 271.695 4498.87 276.675 4498.87Z" fill="url(#paint38_linear)"/>
<path d="M255.324 5143.24L258.302 5133.31C263.598 5115.65 254.56 5096.87 237.458 5089.99C230.291 5087.11 224.254 5081.98 220.257 5075.37L216.684 5069.46C205.115 5050.33 183.33 5039.81 161.205 5043.01C118.815 5049.14 69.577 5057.23 69.5995 5061.03C69.6178 5064.11 85.6816 5098.75 102.98 5135.11C120.443 5171.81 161.54 5190.78 200.908 5180.67L221.989 5175.26C237.944 5171.17 250.591 5159.02 255.324 5143.24Z" fill="url(#paint39_linear)"/>
<path d="M518.088 5478.58L453.172 5471.79C443.569 5470.79 437.493 5481.84 443.485 5489.41C444.431 5490.6 445.62 5491.59 446.969 5492.29C456.315 5497.2 454.368 5511.16 444.018 5513.24L374.067 5527.31C362.939 5529.55 362.238 5545.19 373.121 5548.42C384.156 5551.69 383.229 5567.61 371.889 5569.58L352.997 5572.85C350.085 5573.36 347.257 5574.61 345.529 5577.01C334.995 5591.63 346.347 5614.24 353.7 5615.01C357.715 5615.43 368.164 5617.08 382.203 5618.82C404.188 5621.55 395.553 5654.66 413.503 5667.65C419.892 5672.27 436.158 5673.44 496.282 5664.72C556.406 5655.99 552.932 5648.77 548.003 5645.36C543.073 5641.94 460.468 5580.07 464.445 5579.96C466.414 5579.9 493.415 5572.69 521.729 5564.98C547.394 5557.99 561.062 5530.08 550.954 5505.47L549.599 5502.18C544.233 5489.12 532.131 5480.05 518.088 5478.58Z" fill="url(#paint40_linear)"/>
<path d="M252.067 5288.9L228.136 5286.7C224.921 5286.4 221.686 5286.38 218.466 5286.62L146.657 5292.06C135.014 5292.94 128.584 5305.99 134.978 5315.76C141.655 5325.96 134.333 5339.5 122.138 5339.5L79.9937 5339.5C65.9589 5339.5 61.1158 5358.17 73.3821 5364.99C82.0962 5369.83 82.8095 5382.1 74.7158 5387.92L65.7925 5394.34C53.5929 5403.12 54.7634 5421.63 67.9714 5428.8C78.0208 5434.25 81.6169 5446.91 75.9386 5456.83L74.0413 5460.15C67.5012 5471.58 71.3405 5486.14 82.666 5492.87L91.0167 5497.82C97.7578 5501.82 105.675 5503.37 113.426 5502.2L124.887 5500.48C132.154 5499.38 139.552 5499.5 146.781 5500.82L189.684 5508.69C210.613 5512.53 230.786 5498.98 235.154 5478.15L235.999 5474.12C238.698 5461.25 233.491 5448.01 222.748 5440.43L210.496 5431.78C202.305 5425.99 200.389 5414.65 206.227 5406.49C210.42 5400.64 217.687 5397.83 224.726 5399.35L255.653 5406.02C271.254 5409.39 287.499 5404.63 298.817 5393.37C309.827 5382.43 314.741 5366.76 311.953 5351.49L310.246 5342.13C304.992 5313.34 281.206 5291.58 252.067 5288.9Z" fill="url(#paint41_linear)"/>
<path d="M531.238 5061.9L507.307 5059.7C504.092 5059.4 500.857 5059.38 497.637 5059.62L425.828 5065.06C414.185 5065.94 407.755 5078.99 414.149 5088.76C420.826 5098.96 413.504 5112.5 401.309 5112.5L359.164 5112.5C345.13 5112.5 340.287 5131.17 352.553 5137.99C361.267 5142.83 361.98 5155.1 353.887 5160.92L344.963 5167.34C332.764 5176.12 333.934 5194.63 347.142 5201.8C357.192 5207.25 360.788 5219.91 355.109 5229.83L353.212 5233.15C346.672 5244.58 350.511 5259.14 361.837 5265.87L370.188 5270.82C376.929 5274.82 384.846 5276.37 392.597 5275.2L404.058 5273.48C411.325 5272.38 418.723 5272.5 425.952 5273.82L468.854 5281.69C489.784 5285.53 509.957 5271.98 514.325 5251.15L515.17 5247.12C517.869 5234.25 512.661 5221.01 501.919 5213.43L489.667 5204.78C481.476 5198.99 479.56 5187.65 485.398 5179.49C489.591 5173.64 496.858 5170.83 503.897 5172.35L534.824 5179.02C550.425 5182.39 566.669 5177.63 577.988 5166.37C588.998 5155.43 593.911 5139.76 591.124 5124.49L589.416 5115.13C584.163 5086.34 560.377 5064.58 531.238 5061.9Z" fill="url(#paint42_linear)"/>
<path d="M325.815 4809.81L358.667 4809.86C379.243 4809.89 395.457 4792.34 393.808 4771.83C392.161 4751.36 373.424 4736.64 353.151 4739.89L337.993 4742.31C331.903 4743.29 325.684 4743.11 319.658 4741.8L293.314 4736.05C278.954 4732.92 263.954 4734.81 250.819 4741.4L232.235 4750.73C223.684 4755.02 213.512 4754.53 205.414 4749.43L189.52 4739.43C175.727 4730.75 158.153 4742.44 160.817 4758.52C161.57 4763.06 160.637 4767.72 158.194 4771.63L147.088 4789.38C140.134 4800.49 128.234 4807.55 115.147 4808.34L107.904 4808.77C100.153 4809.24 93.0374 4813.21 88.5738 4819.56C78.7523 4833.54 85.1942 4853.03 101.411 4858.4L123.745 4865.8C141.83 4871.8 147.792 4894.4 135.016 4908.53C129.762 4914.34 127.364 4922.19 128.47 4929.94L130.007 4940.72C133.61 4965.98 155.794 4984.39 181.289 4983.27L218.765 4981.62L260.413 4977.1C286.196 4974.3 299.282 4944.64 283.971 4923.71L282.101 4921.15C280.535 4919.01 279.439 4916.57 278.883 4913.97C275.693 4899.08 290.567 4886.75 304.611 4892.64L334.076 4905.01C347.913 4910.81 363.801 4903.93 369.035 4889.87C375.13 4873.49 363.915 4855.81 346.499 4854.35L324.001 4852.47C304.851 4850.86 297.394 4826.76 312.29 4814.62C316.11 4811.5 320.888 4809.81 325.815 4809.81Z" fill="url(#paint43_linear)"/>
<path d="M2.88295 5939.43L67.7988 5932.64C77.4016 5931.63 83.4776 5942.68 77.4855 5950.25C76.54 5951.45 75.3507 5952.43 74.002 5953.14C64.6558 5958.05 66.6021 5972.01 76.9521 5974.09L146.904 5988.16C158.032 5990.4 158.733 6006.04 147.849 6009.26C136.815 6012.53 137.742 6028.46 149.081 6030.42L167.974 6033.7C170.886 6034.2 173.714 6035.46 175.441 6037.85C185.975 6052.48 174.624 6075.09 167.271 6075.86C163.255 6076.28 152.807 6077.93 138.768 6079.67C116.782 6082.4 125.418 6115.51 107.467 6128.49C101.078 6133.11 84.8127 6134.29 24.6883 6125.56C-35.436 6116.83 -31.9617 6109.62 -27.0324 6106.2C-22.103 6102.79 60.5024 6040.92 56.5258 6040.8C54.5562 6040.75 27.5558 6033.54 -0.758888 6025.83C-26.4234 6018.84 -40.0915 5990.92 -29.9837 5966.32L-28.6285 5963.02C-23.2629 5949.96 -11.1602 5940.9 2.88295 5939.43Z" fill="url(#paint44_linear)"/>
<path d="M46.9034 5591.9L70.8342 5589.7C74.0496 5589.4 77.2842 5589.38 80.504 5589.62L152.313 5595.06C163.956 5595.94 170.386 5608.99 163.993 5618.76C157.315 5628.96 164.637 5642.5 176.832 5642.5L218.977 5642.5C233.012 5642.5 237.855 5661.17 225.588 5667.99C216.874 5672.83 216.161 5685.1 224.255 5690.92L233.178 5697.34C245.378 5706.12 244.207 5724.63 230.999 5731.8C220.95 5737.25 217.354 5749.91 223.032 5759.83L224.929 5763.15C231.469 5774.58 227.63 5789.14 216.304 5795.87L207.954 5800.82C201.213 5804.82 193.296 5806.37 185.544 5805.2L174.083 5803.48C166.816 5802.38 159.418 5802.5 152.19 5803.82L109.287 5811.69C88.3572 5815.53 68.1844 5801.98 63.8167 5781.15L62.9714 5777.12C60.2721 5764.25 65.4798 5751.01 76.2222 5743.43L88.4744 5734.78C96.6657 5728.99 98.5816 5717.65 92.7432 5709.49C88.5507 5703.64 81.283 5700.83 74.2446 5702.35L43.3177 5709.02C27.7162 5712.39 11.4719 5707.63 0.15339 5696.37C-10.8569 5685.43 -15.7702 5669.76 -12.983 5654.49L-11.275 5645.13C-6.02177 5616.34 17.7642 5594.58 46.9034 5591.9Z" fill="url(#paint45_linear)"/>
<path d="M301.295 5766.72L269.573 5766.72C249.086 5766.72 232.941 5749.27 234.531 5728.84C236.128 5708.32 254.944 5693.55 275.259 5696.88L289.354 5699.19C295.396 5700.18 301.572 5700.02 307.551 5698.7L333.313 5693.02C347.473 5689.9 362.279 5691.8 375.191 5698.4L393.386 5707.7C401.863 5712.03 412.002 5711.55 420.026 5706.42L435.01 5696.85C448.74 5688.09 466.377 5699.68 463.776 5715.76C463.052 5720.23 463.963 5724.81 466.34 5728.67L477.486 5746.75C484.252 5757.72 495.927 5764.72 508.794 5765.52L515.63 5765.95C523.442 5766.43 530.599 5770.47 535.054 5776.91C544.736 5790.89 538.3 5810.26 522.171 5815.67L500.795 5822.84C482.728 5828.9 476.73 5851.45 489.399 5865.69C494.574 5871.51 496.938 5879.3 495.866 5887.01L494.399 5897.56C490.869 5922.95 468.576 5941.48 442.965 5940.3L407.072 5938.65L366.557 5934.12C340.81 5931.25 327.689 5901.71 342.816 5880.68L344.673 5878.09C346.207 5875.96 347.278 5873.53 347.817 5870.96C350.939 5856.06 336.017 5843.8 322.01 5849.76L294.029 5861.66C280.172 5867.55 264.204 5860.65 259.011 5846.51C253.016 5830.19 264.201 5812.65 281.523 5811.2L303.082 5809.39C322.157 5807.79 329.672 5783.84 314.932 5771.63C311.098 5768.45 306.275 5766.72 301.295 5766.72Z" fill="url(#paint46_linear)"/>
<path d="M507.067 6114.9L483.136 6112.7C479.921 6112.4 476.686 6112.38 473.466 6112.62L401.657 6118.06C390.014 6118.94 383.584 6131.99 389.978 6141.76C396.655 6151.96 389.333 6165.5 377.138 6165.5L334.994 6165.5C320.959 6165.5 316.116 6184.17 328.382 6190.99C337.096 6195.83 337.809 6208.1 329.716 6213.92L320.793 6220.34C308.593 6229.12 309.763 6247.63 322.971 6254.8C333.021 6260.25 336.617 6272.91 330.939 6282.83L329.041 6286.15C322.501 6297.58 326.341 6312.14 337.666 6318.87L346.017 6323.82C352.758 6327.82 360.675 6329.37 368.426 6328.2L379.887 6326.48C387.154 6325.38 394.552 6325.5 401.781 6326.82L444.684 6334.69C465.613 6338.53 485.786 6324.98 490.154 6304.15L490.999 6300.12C493.698 6287.25 488.491 6274.01 477.748 6266.43L465.496 6257.78C457.305 6251.99 455.389 6240.65 461.227 6232.49C465.42 6226.64 472.687 6223.83 479.726 6225.35L510.653 6232.02C526.254 6235.39 542.499 6230.63 553.817 6219.37C564.827 6208.43 569.741 6192.76 566.953 6177.49L565.246 6168.13C559.992 6139.34 536.206 6117.58 507.067 6114.9Z" fill="url(#paint47_linear)"/>
<path d="M252.675 6289.72L284.398 6289.72C304.884 6289.72 321.029 6272.27 319.44 6251.84C317.842 6231.32 299.027 6216.55 278.712 6219.88L264.617 6222.19C258.574 6223.18 252.399 6223.02 246.419 6221.7L220.658 6216.02C206.497 6212.9 191.691 6214.8 178.779 6221.4L160.584 6230.7C152.107 6235.03 141.969 6234.55 133.945 6229.42L118.961 6219.85C105.231 6211.09 87.5933 6222.68 90.1947 6238.76C90.918 6243.23 90.0078 6247.81 87.6305 6251.67L76.4847 6269.75C69.7189 6280.72 58.0433 6287.72 45.177 6288.52L38.34 6288.95C30.5289 6289.43 23.3711 6293.47 18.9169 6299.91C9.23437 6313.89 15.6702 6333.26 31.7993 6338.67L53.1751 6345.84C71.2427 6351.9 77.2407 6374.45 64.5718 6388.69C59.3965 6394.51 57.0324 6402.3 58.1045 6410.01L59.571 6420.56C63.1016 6445.95 85.3945 6464.48 111.005 6463.3L146.899 6461.65L187.413 6457.12C213.16 6454.25 226.282 6424.71 211.155 6403.68L209.297 6401.09C207.763 6398.96 206.692 6396.53 206.153 6393.96C203.032 6379.06 217.954 6366.8 231.96 6372.76L259.941 6384.66C273.799 6390.55 289.767 6383.65 294.96 6369.51C300.954 6353.19 289.77 6335.65 272.447 6334.2L250.888 6332.39C231.813 6330.79 224.299 6306.84 239.038 6294.63C242.872 6291.45 247.695 6289.72 252.675 6289.72Z" fill="url(#paint48_linear)"/>
<path d="M196.324 6924.84L199.302 6914.91C204.598 6897.26 195.56 6878.47 178.458 6871.6C171.291 6868.71 165.254 6863.58 161.257 6856.97L157.684 6851.06C146.115 6831.94 124.33 6821.42 102.205 6824.61C59.8146 6830.74 10.577 6838.84 10.5995 6842.64C10.6178 6845.71 26.6816 6880.36 43.9802 6916.72C61.4429 6953.42 102.54 6972.39 141.908 6962.28L162.989 6956.87C178.944 6952.77 191.591 6940.62 196.324 6924.84Z" fill="url(#paint49_linear)"/>
<path d="M286.966 6607.47L318.688 6607.47C339.175 6607.47 355.32 6590.02 353.73 6569.6C352.133 6549.07 333.317 6534.31 313.002 6537.64L298.907 6539.95C292.865 6540.94 286.689 6540.77 280.71 6539.46L254.948 6533.78C240.787 6530.66 225.982 6532.56 213.07 6539.16L194.875 6548.46C186.398 6552.79 176.259 6552.3 168.235 6547.18L153.251 6537.61C139.521 6528.85 121.884 6540.44 124.485 6556.52C125.209 6560.99 124.298 6565.57 121.921 6569.43L110.775 6587.5C104.009 6598.48 92.3339 6605.48 79.4675 6606.28L72.6306 6606.7C64.8194 6607.19 57.6616 6611.23 53.2074 6617.66C43.5249 6631.65 49.9607 6651.02 66.0898 6656.43L87.4657 6663.6C105.533 6669.66 111.531 6692.21 98.8623 6706.45C93.687 6712.26 91.323 6720.06 92.395 6727.77L93.8616 6738.32C97.3921 6763.71 119.685 6782.23 145.296 6781.06L181.189 6779.4L221.704 6774.88C247.451 6772 260.572 6742.47 245.445 6721.43L243.588 6718.85C242.054 6716.72 240.983 6714.29 240.444 6711.71C237.322 6696.82 252.244 6684.56 266.251 6690.52L294.232 6702.42C308.089 6708.31 324.057 6701.4 329.25 6687.27C335.245 6670.95 324.06 6653.41 306.738 6651.95L285.179 6650.15C266.104 6648.54 258.589 6624.6 273.329 6612.39C277.163 6609.21 281.986 6607.47 286.966 6607.47Z" fill="url(#paint50_linear)"/>
<path d="M277.324 7266.84L280.302 7256.91C285.598 7239.26 276.56 7220.47 259.458 7213.6C252.291 7210.71 246.254 7205.58 242.257 7198.97L238.684 7193.06C227.115 7173.94 205.33 7163.42 183.205 7166.61C140.815 7172.74 91.577 7180.84 91.5995 7184.64C91.6178 7187.71 107.682 7222.36 124.98 7258.72C142.443 7295.42 183.54 7314.39 222.908 7304.28L243.989 7298.87C259.944 7294.77 272.591 7282.62 277.324 7266.84Z" fill="url(#paint51_linear)"/>
<path d="M540.088 7602.19L475.172 7595.4C465.569 7594.39 459.493 7605.44 465.485 7613.01C466.431 7614.21 467.62 7615.19 468.969 7615.9C478.315 7620.81 476.368 7634.76 466.018 7636.85L396.067 7650.92C384.939 7653.15 384.238 7668.8 395.121 7672.02C406.156 7675.29 405.229 7691.21 393.889 7693.18L374.997 7696.46C372.085 7696.96 369.257 7698.21 367.529 7700.61C356.995 7715.24 368.347 7737.84 375.7 7738.61C379.715 7739.03 390.164 7740.69 404.203 7742.43C426.188 7745.16 417.553 7778.27 435.503 7791.25C441.892 7795.87 458.158 7797.05 518.282 7788.32C578.406 7779.59 574.932 7772.38 570.003 7768.96C565.073 7765.55 482.468 7703.67 486.445 7703.56C488.414 7703.51 515.415 7696.29 543.729 7688.59C569.394 7681.6 583.062 7653.68 572.954 7629.08L571.599 7625.78C566.233 7612.72 554.131 7603.66 540.088 7602.19Z" fill="url(#paint52_linear)"/>
<path d="M274.067 7412.5L250.136 7410.3C246.921 7410.01 243.686 7409.98 240.466 7410.23L168.657 7415.66C157.014 7416.54 150.584 7429.59 156.978 7439.36C163.655 7449.57 156.333 7463.11 144.138 7463.11L101.994 7463.1C87.9589 7463.1 83.1158 7481.77 95.3821 7488.59C104.096 7493.44 104.809 7505.7 96.7158 7511.53L87.7925 7517.94C75.5929 7526.72 76.7634 7545.23 89.9714 7552.4C100.021 7557.86 103.617 7570.51 97.9386 7580.44L96.0413 7583.75C89.5012 7595.18 93.3405 7609.75 104.666 7616.47L113.017 7621.43C119.758 7625.43 127.675 7626.98 135.426 7625.81L146.887 7624.08C154.154 7622.99 161.552 7623.1 168.781 7624.43L211.684 7632.29C232.613 7636.13 252.786 7622.58 257.154 7601.76L257.999 7597.73C260.698 7584.86 255.491 7571.61 244.748 7564.03L232.496 7555.38C224.305 7549.6 222.389 7538.25 228.227 7530.1C232.42 7524.25 239.687 7521.44 246.726 7522.96L277.653 7529.63C293.254 7532.99 309.499 7528.23 320.817 7516.98C331.827 7506.03 336.741 7490.37 333.953 7475.09L332.246 7465.73C326.992 7436.95 303.206 7415.18 274.067 7412.5Z" fill="url(#paint53_linear)"/>
<path d="M553.238 7185.5L529.307 7183.3C526.092 7183.01 522.857 7182.98 519.637 7183.23L447.828 7188.66C436.185 7189.54 429.755 7202.59 436.149 7212.36C442.826 7222.57 435.504 7236.11 423.309 7236.11L381.164 7236.1C367.13 7236.1 362.287 7254.77 374.553 7261.59C383.267 7266.44 383.98 7278.7 375.887 7284.53L366.963 7290.94C354.764 7299.72 355.934 7318.23 369.142 7325.4C379.192 7330.86 382.788 7343.51 377.109 7353.44L375.212 7356.75C368.672 7368.18 372.511 7382.75 383.837 7389.47L392.188 7394.43C398.929 7398.43 406.846 7399.98 414.597 7398.81L426.058 7397.08C433.325 7395.99 440.723 7396.1 447.952 7397.43L490.854 7405.29C511.784 7409.13 531.957 7395.58 536.325 7374.76L537.17 7370.73C539.869 7357.86 534.661 7344.61 523.919 7337.03L511.667 7328.38C503.476 7322.6 501.56 7311.25 507.398 7303.1C511.591 7297.25 518.858 7294.44 525.897 7295.96L556.824 7302.63C572.425 7305.99 588.669 7301.23 599.988 7289.98C610.998 7279.03 615.911 7263.37 613.124 7248.09L611.416 7238.73C606.163 7209.95 582.377 7188.18 553.238 7185.5Z" fill="url(#paint54_linear)"/>
<path d="M450.623 6974.81L483.474 6974.86C504.05 6974.89 520.265 6957.34 518.615 6936.83C516.968 6916.36 498.231 6901.64 477.958 6904.89L462.8 6907.31C456.71 6908.29 450.491 6908.11 444.465 6906.8L418.121 6901.05C403.761 6897.92 388.762 6899.81 375.626 6906.4L357.043 6915.73C348.492 6920.02 338.319 6919.53 330.221 6914.43L314.327 6904.43C300.534 6895.75 282.96 6907.44 285.624 6923.52C286.377 6928.06 285.444 6932.72 283.001 6936.63L271.895 6954.38C264.941 6965.49 253.041 6972.55 239.954 6973.34L232.711 6973.77C224.961 6974.24 217.845 6978.21 213.381 6984.56C203.559 6998.54 210.001 7018.03 226.218 7023.4L248.552 7030.8C266.637 7036.8 272.599 7059.4 259.823 7073.53C254.569 7079.34 252.171 7087.19 253.277 7094.94L254.814 7105.72C258.417 7130.98 280.601 7149.39 306.096 7148.27L343.572 7146.62L385.221 7142.1C411.003 7139.3 424.089 7109.64 408.778 7088.71L406.908 7086.15C405.343 7084.01 404.246 7081.57 403.691 7078.97C400.5 7064.08 415.374 7051.75 429.418 7057.64L458.883 7070.01C472.72 7075.81 488.608 7068.93 493.842 7054.87C499.937 7038.49 488.722 7020.81 471.306 7019.35L448.808 7017.47C429.658 7015.86 422.201 6991.76 437.097 6979.62C440.917 6976.5 445.695 6974.81 450.623 6974.81Z" fill="url(#paint55_linear)"/>
<path d="M68.9034 7715.5L92.8342 7713.3C96.0496 7713.01 99.2842 7712.98 102.504 7713.23L174.313 7718.66C185.956 7719.54 192.386 7732.59 185.993 7742.36C179.315 7752.57 186.637 7766.11 198.832 7766.11L240.977 7766.1C255.012 7766.1 259.855 7784.77 247.588 7791.59C238.874 7796.44 238.161 7808.7 246.255 7814.53L255.178 7820.94C267.378 7829.72 266.207 7848.23 252.999 7855.4C242.95 7860.86 239.354 7873.51 245.032 7883.44L246.929 7886.75C253.469 7898.18 249.63 7912.75 238.304 7919.47L229.954 7924.43C223.213 7928.43 215.296 7929.98 207.544 7928.81L196.083 7927.08C188.816 7925.99 181.418 7926.1 174.19 7927.43L131.287 7935.29C110.357 7939.13 90.1844 7925.58 85.8167 7904.76L84.9714 7900.73C82.2721 7887.86 87.4798 7874.61 98.2222 7867.03L110.474 7858.38C118.666 7852.6 120.582 7841.25 114.743 7833.1C110.551 7827.25 103.283 7824.44 96.2446 7825.96L65.3177 7832.63C49.7162 7835.99 33.4719 7831.23 22.1534 7819.98C11.1431 7809.03 6.22978 7793.37 9.01698 7778.09L10.725 7768.73C15.9782 7739.95 39.7642 7718.18 68.9034 7715.5Z" fill="url(#paint56_linear)"/>
<path d="M323.295 7890.32L291.573 7890.32C271.086 7890.32 254.941 7872.87 256.531 7852.44C258.128 7831.92 276.944 7817.16 297.259 7820.49L311.354 7822.8C317.396 7823.79 323.572 7823.62 329.551 7822.3L355.313 7816.63C369.473 7813.5 384.279 7815.41 397.191 7822L415.386 7831.3C423.863 7835.64 434.002 7835.15 442.026 7830.03L457.01 7820.46C470.74 7811.69 488.377 7823.28 485.776 7839.37C485.052 7843.84 485.963 7848.42 488.34 7852.27L499.486 7870.35C506.252 7881.32 517.927 7888.33 530.794 7889.13L537.63 7889.55C545.442 7890.04 552.599 7894.08 557.054 7900.51C566.736 7914.5 560.3 7933.87 544.171 7939.28L522.795 7946.45C504.728 7952.51 498.73 7975.06 511.399 7989.3C516.574 7995.11 518.938 8002.9 517.866 8010.61L516.399 8021.16C512.869 8046.56 490.576 8065.08 464.965 8063.9L429.072 8062.25L388.557 8057.73C362.81 8054.85 349.689 8025.31 364.816 8004.28L366.673 8001.7C368.207 7999.56 369.278 7997.13 369.817 7994.56C372.939 7979.66 358.017 7967.41 344.01 7973.37L316.029 7985.27C302.172 7991.16 286.204 7984.25 281.011 7970.12C275.016 7953.8 286.201 7936.25 303.523 7934.8L325.082 7932.99C344.157 7931.39 351.672 7907.45 336.932 7895.24C333.098 7892.06 328.275 7890.32 323.295 7890.32Z" fill="url(#paint57_linear)"/>
<path d="M383.623 5912.97L416.474 5913.01C437.05 5913.04 453.265 5895.49 451.615 5874.98C449.968 5854.52 431.231 5839.8 410.958 5843.04L395.8 5845.47C389.71 5846.44 383.491 5846.27 377.465 5844.95L351.121 5839.2C336.761 5836.07 321.762 5837.96 308.626 5844.55L290.043 5853.88C281.492 5858.17 271.319 5857.68 263.221 5852.59L247.327 5842.59C233.534 5833.91 215.96 5845.59 218.624 5861.67C219.377 5866.21 218.444 5870.87 216.001 5874.78L204.895 5892.53C197.941 5903.64 186.041 5910.71 172.954 5911.49L165.711 5911.92C157.961 5912.39 150.845 5916.36 146.381 5922.71C136.559 5936.69 143.001 5956.18 159.218 5961.56L181.552 5968.96C199.637 5974.95 205.599 5997.55 192.823 6011.68C187.569 6017.49 185.171 6025.34 186.277 6033.09L187.814 6043.87C191.417 6069.13 213.601 6087.54 239.096 6086.42L276.572 6084.77L318.221 6080.25C344.003 6077.45 357.089 6047.79 341.778 6026.86L339.908 6024.31C338.343 6022.17 337.246 6019.72 336.691 6017.13C333.5 6002.23 348.374 5989.9 362.418 5995.79L391.883 6008.16C405.72 6013.97 421.608 6007.09 426.842 5993.02C432.937 5976.64 421.722 5958.97 404.306 5957.51L381.808 5955.62C362.658 5954.01 355.201 5929.91 370.097 5917.77C373.917 5914.66 378.695 5912.96 383.623 5912.97Z" fill="url(#paint58_linear)"/>
<path d="M-42.1171 7001.19L22.7988 6994.4C32.4016 6993.39 38.4776 7004.44 32.4855 7012.01C31.54 7013.21 30.3507 7014.19 29.002 7014.9C19.6558 7019.81 21.6021 7033.76 31.9521 7035.85L101.904 7049.92C113.032 7052.15 113.733 7067.8 102.849 7071.02C91.8145 7074.29 92.7418 7090.21 104.081 7092.18L122.974 7095.46C125.886 7095.96 128.714 7097.21 130.441 7099.61C140.975 7114.24 129.624 7136.84 122.271 7137.61C118.255 7138.03 107.807 7139.69 93.7679 7141.43C71.7824 7144.16 80.4179 7177.27 62.4675 7190.25C56.0784 7194.87 39.8127 7196.05 -20.3117 7187.32C-80.436 7178.59 -76.9617 7171.38 -72.0324 7167.96C-67.103 7164.55 15.5024 7102.67 11.5258 7102.56C9.55623 7102.51 -17.4442 7095.29 -45.7589 7087.59C-71.4234 7080.6 -85.0915 7052.68 -74.9837 7028.08L-73.6285 7024.78C-68.2629 7011.72 -56.1602 7002.66 -42.1171 7001.19Z" fill="url(#paint59_linear)"/>
<path d="M1.90342 6653.66L25.8342 6651.46C29.0496 6651.16 32.2842 6651.14 35.504 6651.38L107.313 6656.82C118.956 6657.7 125.386 6670.75 118.993 6680.52C112.315 6690.72 119.637 6704.26 131.832 6704.26L173.977 6704.25C188.012 6704.25 192.855 6722.93 180.588 6729.75C171.874 6734.59 171.161 6746.86 179.255 6752.68L188.178 6759.1C200.378 6767.87 199.207 6786.39 185.999 6793.56C175.95 6799.01 172.354 6811.67 178.032 6821.59L179.929 6824.91C186.469 6836.34 182.63 6850.9 171.304 6857.62L162.954 6862.58C156.213 6866.58 148.296 6868.13 140.544 6866.96L129.083 6865.23C121.816 6864.14 114.418 6864.26 107.19 6865.58L64.2869 6873.45C43.3572 6877.28 23.1844 6863.74 18.8167 6842.91L17.9714 6838.88C15.2721 6826.01 20.4798 6812.77 31.2222 6805.18L43.4744 6796.53C51.6657 6790.75 53.5816 6779.4 47.7432 6771.25C43.5507 6765.4 36.283 6762.59 29.2446 6764.11L-1.68232 6770.78C-17.2838 6774.14 -33.5281 6769.38 -44.8466 6758.13C-55.8569 6747.19 -60.7702 6731.52 -57.983 6716.25L-56.275 6706.89C-51.0218 6678.1 -27.2358 6656.34 1.90342 6653.66Z" fill="url(#paint60_linear)"/>
<path d="M256.295 6828.47L224.573 6828.47C204.086 6828.47 187.941 6811.02 189.531 6790.6C191.128 6770.07 209.944 6755.31 230.259 6758.64L244.354 6760.95C250.396 6761.94 256.572 6761.77 262.551 6760.46L288.313 6754.78C302.473 6751.66 317.279 6753.56 330.191 6760.16L348.386 6769.46C356.863 6773.79 367.002 6773.3 375.026 6768.18L390.01 6758.61C403.74 6749.85 421.377 6761.44 418.776 6777.52C418.052 6781.99 418.963 6786.57 421.34 6790.43L432.486 6808.5C439.252 6819.48 450.927 6826.48 463.794 6827.28L470.63 6827.7C478.442 6828.19 485.599 6832.23 490.054 6838.66C499.736 6852.65 493.3 6872.02 477.171 6877.43L455.795 6884.6C437.728 6890.66 431.73 6913.21 444.399 6927.45C449.574 6933.26 451.938 6941.06 450.866 6948.77L449.399 6959.32C445.869 6984.71 423.576 7003.23 397.965 7002.06L362.072 7000.4L321.557 6995.88C295.81 6993 282.689 6963.47 297.816 6942.43L299.673 6939.85C301.207 6937.72 302.278 6935.29 302.817 6932.71C305.939 6917.82 291.017 6905.56 277.01 6911.52L249.029 6923.42C235.172 6929.31 219.204 6922.4 214.011 6908.27C208.016 6891.95 219.201 6874.41 236.523 6872.95L258.082 6871.15C277.157 6869.54 284.672 6845.6 269.932 6833.39C266.098 6830.21 261.275 6828.47 256.295 6828.47Z" fill="url(#paint61_linear)"/>
<path d="M105.324 7653.84L108.302 7643.91C113.598 7626.26 104.56 7607.47 87.4581 7600.6C80.2911 7597.71 74.2544 7592.58 70.2566 7585.97L66.6844 7580.06C55.1153 7560.94 33.33 7550.42 11.2052 7553.61C-31.1854 7559.74 -80.423 7567.84 -80.4005 7571.64C-80.3822 7574.71 -64.3184 7609.36 -47.0198 7645.72C-29.5571 7682.42 11.5399 7701.39 50.9078 7691.28L71.9888 7685.87C87.9443 7681.77 100.591 7669.62 105.324 7653.84Z" fill="url(#paint62_linear)"/>
<path d="M462.067 7176.66L438.136 7174.46C434.921 7174.16 431.686 7174.13 428.466 7174.38L356.657 7179.82C345.014 7180.7 338.584 7193.74 344.978 7203.52C351.655 7213.72 344.333 7227.26 332.138 7227.26L289.994 7227.25C275.959 7227.25 271.116 7245.93 283.382 7252.75C292.096 7257.59 292.809 7269.86 284.716 7275.68L275.793 7282.1C263.593 7290.87 264.763 7309.39 277.971 7316.56C288.021 7322.01 291.617 7334.66 285.939 7344.59L284.041 7347.91C277.501 7359.34 281.341 7373.9 292.666 7380.62L301.017 7385.58C307.758 7389.58 315.675 7391.13 323.426 7389.96L334.887 7388.23C342.154 7387.14 349.552 7387.26 356.781 7388.58L399.684 7396.45C420.613 7400.28 440.786 7386.74 445.154 7365.91L445.999 7361.88C448.698 7349.01 443.491 7335.77 432.748 7328.18L420.496 7319.53C412.305 7313.75 410.389 7302.4 416.227 7294.25C420.42 7288.4 427.687 7285.59 434.726 7287.11L465.653 7293.78C481.254 7297.14 497.499 7292.38 508.817 7281.13C519.827 7270.19 524.741 7254.52 521.953 7239.25L520.246 7229.89C514.992 7201.1 491.206 7179.34 462.067 7176.66Z" fill="url(#paint63_linear)"/>
<path d="M207.675 7351.47L239.398 7351.47C259.884 7351.47 276.029 7334.02 274.44 7313.6C272.842 7293.07 254.027 7278.31 233.712 7281.64L219.617 7283.95C213.574 7284.94 207.399 7284.77 201.419 7283.46L175.658 7277.78C161.497 7274.66 146.691 7276.56 133.779 7283.16L115.584 7292.46C107.107 7296.79 96.9686 7296.3 88.9447 7291.18L73.9609 7281.61C60.2309 7272.85 42.5933 7284.44 45.1947 7300.52C45.918 7304.99 45.0078 7309.57 42.6305 7313.43L31.4847 7331.51C24.7189 7342.48 13.0433 7349.48 0.176959 7350.28L-6.65995 7350.7C-14.4711 7351.19 -21.6289 7355.23 -26.0831 7361.66C-35.7656 7375.65 -29.3298 7395.02 -13.2007 7400.43L8.17515 7407.6C26.2427 7413.66 32.2407 7436.21 19.5718 7450.45C14.3965 7456.26 12.0324 7464.06 13.1045 7471.77L14.571 7482.32C18.1016 7507.71 40.3945 7526.24 66.0054 7525.06L101.899 7523.4L142.413 7518.88C168.16 7516 181.282 7486.47 166.155 7465.43L164.297 7462.85C162.763 7460.72 161.692 7458.29 161.153 7455.72C158.032 7440.82 172.954 7428.56 186.96 7434.52L214.941 7446.42C228.799 7452.31 244.767 7445.4 249.96 7431.27C255.954 7414.95 244.77 7397.41 227.447 7395.95L205.888 7394.15C186.813 7392.55 179.299 7368.6 194.038 7356.39C197.872 7353.21 202.695 7351.47 207.675 7351.47Z" fill="url(#paint64_linear)"/>
</g>
<defs>
<linearGradient id="paint0_linear" x1="207" y1="0" x2="207" y2="8033" gradientUnits="userSpaceOnUse">
<stop stop-color="#ABF0E9"/>
<stop offset="0.989583" stop-color="#09C7AE"/>
</linearGradient>
<linearGradient id="paint1_linear" x1="-18.6893" y1="352.405" x2="-19.5645" y2="569.407" gradientUnits="userSpaceOnUse">
<stop stop-color="white" stop-opacity="0.71"/>
<stop offset="1" stop-color="white" stop-opacity="0"/>
</linearGradient>
<linearGradient id="paint2_linear" x1="399.5" y1="362.5" x2="431" y2="559.5" gradientUnits="userSpaceOnUse">
<stop stop-color="white" stop-opacity="0.54"/>
<stop offset="1" stop-color="#C4C4C4" stop-opacity="0"/>
</linearGradient>
<linearGradient id="paint3_linear" x1="-68.9494" y1="11.5165" x2="164.405" y2="235.992" gradientUnits="userSpaceOnUse">
<stop stop-color="white"/>
<stop offset="1" stop-color="white" stop-opacity="0"/>
</linearGradient>
<linearGradient id="paint4_linear" x1="314.796" y1="91.4797" x2="382.486" y2="327.145" gradientUnits="userSpaceOnUse">
<stop stop-color="white" stop-opacity="0.4"/>
<stop offset="1" stop-color="white" stop-opacity="0"/>
</linearGradient>
<linearGradient id="paint5_linear" x1="1.31072" y1="856.251" x2="0.435462" y2="1073.25" gradientUnits="userSpaceOnUse">
<stop stop-color="white" stop-opacity="0.71"/>
<stop offset="1" stop-color="white" stop-opacity="0"/>
</linearGradient>
<linearGradient id="paint6_linear" x1="318.5" y1="704.5" x2="350" y2="901.5" gradientUnits="userSpaceOnUse">
<stop stop-color="white" stop-opacity="0.54"/>
<stop offset="1" stop-color="#C4C4C4" stop-opacity="0"/>
</linearGradient>
<linearGradient id="paint7_linear" x1="38.3107" y1="1159.4" x2="37.4355" y2="1376.41" gradientUnits="userSpaceOnUse">
<stop stop-color="white" stop-opacity="0.71"/>
<stop offset="1" stop-color="white" stop-opacity="0"/>
</linearGradient>
<linearGradient id="paint8_linear" x1="210.051" y1="976.363" x2="443.405" y2="1200.84" gradientUnits="userSpaceOnUse">
<stop stop-color="white"/>
<stop offset="1" stop-color="white" stop-opacity="0"/>
</linearGradient>
<linearGradient id="paint9_linear" x1="-69.1201" y1="749.363" x2="164.234" y2="973.839" gradientUnits="userSpaceOnUse">
<stop stop-color="white"/>
<stop offset="1" stop-color="white" stop-opacity="0"/>
</linearGradient>
<linearGradient id="paint10_linear" x1="266.909" y1="402.302" x2="333.914" y2="638.318" gradientUnits="userSpaceOnUse">
<stop stop-color="white" stop-opacity="0.4"/>
<stop offset="1" stop-color="white" stop-opacity="0"/>
</linearGradient>
<linearGradient id="paint11_linear" x1="458.66" y1="1620.25" x2="459.535" y2="1837.25" gradientUnits="userSpaceOnUse">
<stop stop-color="white" stop-opacity="0.71"/>
<stop offset="1" stop-color="white" stop-opacity="0"/>
</linearGradient>
<linearGradient id="paint12_linear" x1="40.4705" y1="1630.35" x2="8.97046" y2="1827.35" gradientUnits="userSpaceOnUse">
<stop stop-color="white" stop-opacity="0.54"/>
<stop offset="1" stop-color="#C4C4C4" stop-opacity="0"/>
</linearGradient>
<linearGradient id="paint13_linear" x1="508.92" y1="1279.36" x2="275.565" y2="1503.84" gradientUnits="userSpaceOnUse">
<stop stop-color="white"/>
<stop offset="1" stop-color="white" stop-opacity="0"/>
</linearGradient>
<linearGradient id="paint14_linear" x1="125.175" y1="1359.33" x2="57.4844" y2="1594.99" gradientUnits="userSpaceOnUse">
<stop stop-color="white" stop-opacity="0.4"/>
<stop offset="1" stop-color="white" stop-opacity="0"/>
</linearGradient>
<linearGradient id="paint15_linear" x1="5.31072" y1="2143.25" x2="4.43546" y2="2360.25" gradientUnits="userSpaceOnUse">
<stop stop-color="white" stop-opacity="0.71"/>
<stop offset="1" stop-color="white" stop-opacity="0"/>
</linearGradient>
<linearGradient id="paint16_linear" x1="423.5" y1="2153.35" x2="455" y2="2350.35" gradientUnits="userSpaceOnUse">
<stop stop-color="white" stop-opacity="0.54"/>
<stop offset="1" stop-color="#C4C4C4" stop-opacity="0"/>
</linearGradient>
<linearGradient id="paint17_linear" x1="-44.9494" y1="1802.36" x2="188.405" y2="2026.84" gradientUnits="userSpaceOnUse">
<stop stop-color="white"/>
<stop offset="1" stop-color="white" stop-opacity="0"/>
</linearGradient>
<linearGradient id="paint18_linear" x1="338.796" y1="1882.33" x2="406.486" y2="2117.99" gradientUnits="userSpaceOnUse">
<stop stop-color="white" stop-opacity="0.4"/>
<stop offset="1" stop-color="white" stop-opacity="0"/>
</linearGradient>
<linearGradient id="paint19_linear" x1="-40.6893" y1="2476.01" x2="-41.5645" y2="2693.01" gradientUnits="userSpaceOnUse">
<stop stop-color="white" stop-opacity="0.71"/>
<stop offset="1" stop-color="white" stop-opacity="0"/>
</linearGradient>
<linearGradient id="paint20_linear" x1="377.5" y1="2486.1" x2="409" y2="2683.1" gradientUnits="userSpaceOnUse">
<stop stop-color="white" stop-opacity="0.54"/>
<stop offset="1" stop-color="#C4C4C4" stop-opacity="0"/>
</linearGradient>
<linearGradient id="paint21_linear" x1="304.505" y1="2200.08" x2="372.196" y2="2435.75" gradientUnits="userSpaceOnUse">
<stop stop-color="white" stop-opacity="0.4"/>
<stop offset="1" stop-color="white" stop-opacity="0"/>
</linearGradient>
<linearGradient id="paint22_linear" x1="-20.6893" y1="2979.86" x2="-21.5645" y2="3196.86" gradientUnits="userSpaceOnUse">
<stop stop-color="white" stop-opacity="0.71"/>
<stop offset="1" stop-color="white" stop-opacity="0"/>
</linearGradient>
<linearGradient id="paint23_linear" x1="296.5" y1="2828.1" x2="328" y2="3025.1" gradientUnits="userSpaceOnUse">
<stop stop-color="white" stop-opacity="0.54"/>
<stop offset="1" stop-color="#C4C4C4" stop-opacity="0"/>
</linearGradient>
<linearGradient id="paint24_linear" x1="16.3107" y1="3283.01" x2="15.4355" y2="3500.01" gradientUnits="userSpaceOnUse">
<stop stop-color="white" stop-opacity="0.71"/>
<stop offset="1" stop-color="white" stop-opacity="0"/>
</linearGradient>
<linearGradient id="paint25_linear" x1="188.051" y1="3099.97" x2="421.405" y2="3324.44" gradientUnits="userSpaceOnUse">
<stop stop-color="white"/>
<stop offset="1" stop-color="white" stop-opacity="0"/>
</linearGradient>
<linearGradient id="paint26_linear" x1="-91.1201" y1="2872.97" x2="142.234" y2="3097.44" gradientUnits="userSpaceOnUse">
<stop stop-color="white"/>
<stop offset="1" stop-color="white" stop-opacity="0"/>
</linearGradient>
<linearGradient id="paint27_linear" x1="142.102" y1="2567.3" x2="209.107" y2="2803.32" gradientUnits="userSpaceOnUse">
<stop stop-color="white" stop-opacity="0.4"/>
<stop offset="1" stop-color="white" stop-opacity="0"/>
</linearGradient>
<linearGradient id="paint28_linear" x1="436.66" y1="3743.86" x2="437.535" y2="3960.86" gradientUnits="userSpaceOnUse">
<stop stop-color="white" stop-opacity="0.71"/>
<stop offset="1" stop-color="white" stop-opacity="0"/>
</linearGradient>
<linearGradient id="paint29_linear" x1="18.4705" y1="3753.95" x2="-13.0295" y2="3950.95" gradientUnits="userSpaceOnUse">
<stop stop-color="white" stop-opacity="0.54"/>
<stop offset="1" stop-color="#C4C4C4" stop-opacity="0"/>
</linearGradient>
<linearGradient id="paint30_linear" x1="486.92" y1="3402.97" x2="253.565" y2="3627.44" gradientUnits="userSpaceOnUse">
<stop stop-color="white"/>
<stop offset="1" stop-color="white" stop-opacity="0"/>
</linearGradient>
<linearGradient id="paint31_linear" x1="103.175" y1="3482.93" x2="35.4844" y2="3718.6" gradientUnits="userSpaceOnUse">
<stop stop-color="white" stop-opacity="0.4"/>
<stop offset="1" stop-color="white" stop-opacity="0"/>
</linearGradient>
<linearGradient id="paint32_linear" x1="-16.6893" y1="4266.86" x2="-17.5645" y2="4483.86" gradientUnits="userSpaceOnUse">
<stop stop-color="white" stop-opacity="0.71"/>
<stop offset="1" stop-color="white" stop-opacity="0"/>
</linearGradient>
<linearGradient id="paint33_linear" x1="401.5" y1="4276.95" x2="433" y2="4473.95" gradientUnits="userSpaceOnUse">
<stop stop-color="white" stop-opacity="0.54"/>
<stop offset="1" stop-color="#C4C4C4" stop-opacity="0"/>
</linearGradient>
<linearGradient id="paint34_linear" x1="-66.9494" y1="3925.97" x2="166.405" y2="4150.44" gradientUnits="userSpaceOnUse">
<stop stop-color="white"/>
<stop offset="1" stop-color="white" stop-opacity="0"/>
</linearGradient>
<linearGradient id="paint35_linear" x1="316.796" y1="4005.93" x2="384.486" y2="4241.6" gradientUnits="userSpaceOnUse">
<stop stop-color="white" stop-opacity="0.4"/>
<stop offset="1" stop-color="white" stop-opacity="0"/>
</linearGradient>
<linearGradient id="paint36_linear" x1="109.47" y1="4679.35" x2="77.9705" y2="4876.35" gradientUnits="userSpaceOnUse">
<stop stop-color="white" stop-opacity="0.54"/>
<stop offset="1" stop-color="#C4C4C4" stop-opacity="0"/>
</linearGradient>
<linearGradient id="paint37_linear" x1="577.92" y1="4328.36" x2="344.565" y2="4552.84" gradientUnits="userSpaceOnUse">
<stop stop-color="white"/>
<stop offset="1" stop-color="white" stop-opacity="0"/>
</linearGradient>
<linearGradient id="paint38_linear" x1="194.175" y1="4408.33" x2="126.484" y2="4643.99" gradientUnits="userSpaceOnUse">
<stop stop-color="white" stop-opacity="0.4"/>
<stop offset="1" stop-color="white" stop-opacity="0"/>
</linearGradient>
<linearGradient id="paint39_linear" x1="190.47" y1="5021.35" x2="158.97" y2="5218.35" gradientUnits="userSpaceOnUse">
<stop stop-color="white" stop-opacity="0.54"/>
<stop offset="1" stop-color="#C4C4C4" stop-opacity="0"/>
</linearGradient>
<linearGradient id="paint40_linear" x1="470.66" y1="5476.25" x2="471.535" y2="5693.25" gradientUnits="userSpaceOnUse">
<stop stop-color="white" stop-opacity="0.71"/>
<stop offset="1" stop-color="white" stop-opacity="0"/>
</linearGradient>
<linearGradient id="paint41_linear" x1="298.92" y1="5293.21" x2="65.5654" y2="5517.69" gradientUnits="userSpaceOnUse">
<stop stop-color="white"/>
<stop offset="1" stop-color="white" stop-opacity="0"/>
</linearGradient>
<linearGradient id="paint42_linear" x1="578.091" y1="5066.21" x2="344.736" y2="5290.69" gradientUnits="userSpaceOnUse">
<stop stop-color="white"/>
<stop offset="1" stop-color="white" stop-opacity="0"/>
</linearGradient>
<linearGradient id="paint43_linear" x1="242.062" y1="4719.15" x2="175.056" y2="4955.16" gradientUnits="userSpaceOnUse">
<stop stop-color="white" stop-opacity="0.4"/>
<stop offset="1" stop-color="white" stop-opacity="0"/>
</linearGradient>
<linearGradient id="paint44_linear" x1="50.3107" y1="5937.1" x2="49.4355" y2="6154.1" gradientUnits="userSpaceOnUse">
<stop stop-color="white" stop-opacity="0.71"/>
<stop offset="1" stop-color="white" stop-opacity="0"/>
</linearGradient>
<linearGradient id="paint45_linear" x1="0.0506316" y1="5596.21" x2="233.405" y2="5820.69" gradientUnits="userSpaceOnUse">
<stop stop-color="white"/>
<stop offset="1" stop-color="white" stop-opacity="0"/>
</linearGradient>
<linearGradient id="paint46_linear" x1="383.796" y1="5676.17" x2="451.486" y2="5911.84" gradientUnits="userSpaceOnUse">
<stop stop-color="white" stop-opacity="0.4"/>
<stop offset="1" stop-color="white" stop-opacity="0"/>
</linearGradient>
<linearGradient id="paint47_linear" x1="553.92" y1="6119.21" x2="320.565" y2="6343.69" gradientUnits="userSpaceOnUse">
<stop stop-color="white"/>
<stop offset="1" stop-color="white" stop-opacity="0"/>
</linearGradient>
<linearGradient id="paint48_linear" x1="170.175" y1="6199.17" x2="102.484" y2="6434.84" gradientUnits="userSpaceOnUse">
<stop stop-color="white" stop-opacity="0.4"/>
<stop offset="1" stop-color="white" stop-opacity="0"/>
</linearGradient>
<linearGradient id="paint49_linear" x1="131.47" y1="6802.95" x2="99.9705" y2="6999.95" gradientUnits="userSpaceOnUse">
<stop stop-color="white" stop-opacity="0.54"/>
<stop offset="1" stop-color="#C4C4C4" stop-opacity="0"/>
</linearGradient>
<linearGradient id="paint50_linear" x1="204.465" y1="6516.93" x2="136.775" y2="6752.6" gradientUnits="userSpaceOnUse">
<stop stop-color="white" stop-opacity="0.4"/>
<stop offset="1" stop-color="white" stop-opacity="0"/>
</linearGradient>
<linearGradient id="paint51_linear" x1="212.47" y1="7144.95" x2="180.97" y2="7341.95" gradientUnits="userSpaceOnUse">
<stop stop-color="white" stop-opacity="0.54"/>
<stop offset="1" stop-color="#C4C4C4" stop-opacity="0"/>
</linearGradient>
<linearGradient id="paint52_linear" x1="492.66" y1="7599.86" x2="493.535" y2="7816.86" gradientUnits="userSpaceOnUse">
<stop stop-color="white" stop-opacity="0.71"/>
<stop offset="1" stop-color="white" stop-opacity="0"/>
</linearGradient>
<linearGradient id="paint53_linear" x1="320.92" y1="7416.81" x2="87.5654" y2="7641.29" gradientUnits="userSpaceOnUse">
<stop stop-color="white"/>
<stop offset="1" stop-color="white" stop-opacity="0"/>
</linearGradient>
<linearGradient id="paint54_linear" x1="600.091" y1="7189.81" x2="366.736" y2="7414.29" gradientUnits="userSpaceOnUse">
<stop stop-color="white"/>
<stop offset="1" stop-color="white" stop-opacity="0"/>
</linearGradient>
<linearGradient id="paint55_linear" x1="366.869" y1="6884.15" x2="299.863" y2="7120.16" gradientUnits="userSpaceOnUse">
<stop stop-color="white" stop-opacity="0.4"/>
<stop offset="1" stop-color="white" stop-opacity="0"/>
</linearGradient>
<linearGradient id="paint56_linear" x1="22.0506" y1="7719.81" x2="255.405" y2="7944.29" gradientUnits="userSpaceOnUse">
<stop stop-color="white"/>
<stop offset="1" stop-color="white" stop-opacity="0"/>
</linearGradient>
<linearGradient id="paint57_linear" x1="405.796" y1="7799.78" x2="473.486" y2="8035.44" gradientUnits="userSpaceOnUse">
<stop stop-color="white" stop-opacity="0.4"/>
<stop offset="1" stop-color="white" stop-opacity="0"/>
</linearGradient>
<linearGradient id="paint58_linear" x1="299.869" y1="5822.3" x2="232.863" y2="6058.32" gradientUnits="userSpaceOnUse">
<stop stop-color="white" stop-opacity="0.4"/>
<stop offset="1" stop-color="white" stop-opacity="0"/>
</linearGradient>
<linearGradient id="paint59_linear" x1="5.31072" y1="6998.86" x2="4.43546" y2="7215.86" gradientUnits="userSpaceOnUse">
<stop stop-color="white" stop-opacity="0.71"/>
<stop offset="1" stop-color="white" stop-opacity="0"/>
</linearGradient>
<linearGradient id="paint60_linear" x1="-44.9494" y1="6657.97" x2="188.405" y2="6882.44" gradientUnits="userSpaceOnUse">
<stop stop-color="white"/>
<stop offset="1" stop-color="white" stop-opacity="0"/>
</linearGradient>
<linearGradient id="paint61_linear" x1="338.796" y1="6737.93" x2="406.486" y2="6973.6" gradientUnits="userSpaceOnUse">
<stop stop-color="white" stop-opacity="0.4"/>
<stop offset="1" stop-color="white" stop-opacity="0"/>
</linearGradient>
<linearGradient id="paint62_linear" x1="40.4705" y1="7531.95" x2="8.97046" y2="7728.95" gradientUnits="userSpaceOnUse">
<stop stop-color="white" stop-opacity="0.54"/>
<stop offset="1" stop-color="#C4C4C4" stop-opacity="0"/>
</linearGradient>
<linearGradient id="paint63_linear" x1="508.92" y1="7180.97" x2="275.565" y2="7405.44" gradientUnits="userSpaceOnUse">
<stop stop-color="white"/>
<stop offset="1" stop-color="white" stop-opacity="0"/>
</linearGradient>
<linearGradient id="paint64_linear" x1="125.175" y1="7260.93" x2="57.4844" y2="7496.6" gradientUnits="userSpaceOnUse">
<stop stop-color="white" stop-opacity="0.4"/>
<stop offset="1" stop-color="white" stop-opacity="0"/>
</linearGradient>
<clipPath id="clip0">
<rect width="414" height="8033" fill="white"/>
</clipPath>
</defs>
</svg>
